<?xml version="1.0" encoding="UTF-8" standalone="no"?>
<svg width="132px" height="81px" viewBox="0 0 132 81" version="1.1" xmlns="http://www.w3.org/2000/svg" xmlns:xlink="http://www.w3.org/1999/xlink">
    <!-- Generator: Sketch 3.7 (28169) - http://www.bohemiancoding.com/sketch -->
    <title>logo-uk</title>
    <desc>Created with Sketch.</desc>
    <defs>
        <linearGradient x1="82.6369314%" y1="41.3797355%" x2="26.9001333%" y2="90.8463409%" id="linearGradient-1">
            <stop stop-color="#36A898" offset="0%"></stop>
            <stop stop-color="#504D4D" offset="100%"></stop>
        </linearGradient>
    </defs>
    <g id="Page-1" stroke="none" stroke-width="1" fill="none" fill-rule="evenodd">
        <g id="logo-uk">
            <g id="Page-1">
                <g id="logo">
                    <g id="Page-1">
                        <g id="Desktop-HD">
                            <g id="UK-Logo">
                                <g id="Page-1">
                                    <g id="Group">
                                        <path d="M116.252532,21.2387639 C124.759012,26.8690392 130.369313,36.4431905 130.369313,47.2866837 L130.369313,47.2866837 C130.369313,64.570742 116.117043,78.6321714 98.5989462,78.6321714 L98.5989462,78.6321714 C89.3301878,78.6321714 80.9764047,74.6950337 75.1634713,68.4276208 L75.1634713,68.4276208 L73.0515916,68.4276208 C73.6771778,69.1619836 74.3360948,69.8746873 75.0314713,70.5609189 L75.0314713,70.5609189 C81.3271613,76.7745451 89.6968277,80.1964376 98.5989462,80.1964376 L98.5989462,80.1964376 C107.500944,80.1964376 115.870851,76.7745451 122.166301,70.5609189 L122.166301,70.5609189 C128.464758,64.3447657 131.933579,56.0790629 131.933579,47.2866837 L131.933579,47.2866837 C131.933579,38.4943045 128.464758,30.2284813 122.166301,24.0123282 L122.166301,24.0123282 C120.354881,22.2243719 118.37091,20.6691304 116.252532,19.3586363 L116.252532,19.3586363 L116.252532,21.2387639 L116.252532,21.2387639 L116.252532,21.2387639 L116.252532,21.2387639 Z" id="Fill-42" fill="url(#linearGradient-1)"></path>
                                        <text id="UK" fill="#474343" font-family="Helvetica" font-size="9.50592525" font-weight="normal">
                                            <tspan x="23.9453054" y="71.006381">UK</tspan>
                                        </text>
                                        <path d="M24.6071103,73.5 L37.3709745,73.5" id="Line" stroke="#474343"></path>
                                        <g id="Group-41" transform="translate(0.000000, 0.779847)">
                                            <path d="M27.383418,30.7438469 L29.3688328,30.7438469 C30.3314582,30.7438469 32.0310935,31.1800365 32.0310935,32.969918 C32.0310935,34.7597995 30.7676478,35.5419325 29.2635457,35.5419325 L27.383418,35.5419325 L27.383418,30.7438469 L27.383418,30.7438469 L27.383418,30.7438469 L27.383418,30.7438469 Z M27.383418,37.4972653 L28.3460434,37.4972653 C29.1281765,37.4972653 29.2033816,37.4671832 29.8501455,38.4598906 C30.4969094,39.452598 31.9408474,41.7538742 32.3319139,42.310392 C32.7229805,42.8669098 32.9484755,43.1526892 33.7457699,43.1526892 L35.8966359,43.1526892 C35.8966359,43.1526892 33.0490698,38.8030665 32.4115712,37.8892944 C31.7740726,36.9755223 31.4339048,36.9483282 31.4339048,36.9483282 C31.4339048,36.9483282 34.6430571,36.1462206 34.6430571,32.884124 C34.6430571,29.621907 31.7952503,28.6583191 29.255604,28.6583191 L24.6609933,28.6583191 L24.6609933,43.1526892 L27.383418,43.1526892 L27.383418,37.4972653 L27.383418,37.4972653 L27.383418,37.4972653 L27.383418,37.4972653 Z" id="Fill-1" fill="#474343"></path>
                                            <path d="M40.7407231,34.4706148 C43.1853101,34.4706148 43.0388707,36.8805473 43.0388707,36.8805473 L38.3411387,36.8805473 C38.3411387,36.8805473 38.296136,34.4706148 40.7407231,34.4706148 M40.9772882,43.2579402 C42.6503311,43.2579402 44.2216966,42.4920514 45.0778315,41.647107 C45.0778315,41.647107 44.5370768,40.92586 44.2666994,40.5879785 C43.996322,40.2499767 43.8835745,40.4641608 43.4104441,40.6781043 C42.9373138,40.8920478 42.3628671,41.3652985 41.1349181,41.3652985 C39.9069692,41.3652985 38.2288726,40.6557232 38.3074469,38.3011417 L44.6162527,38.3011417 C45.1456966,38.3011417 45.1795088,37.9292073 45.168198,37.3885728 C45.1570075,36.8479384 45.145456,32.7359639 40.6844095,32.7359639 C36.2232427,32.7359639 35.8288069,37.0392602 35.8288069,37.8390815 C35.8288069,38.6390232 35.9866775,43.2579402 40.9772882,43.2579402" id="Fill-3" fill="#474343"></path>
                                            <path d="M60.7953976,34.4706148 C63.2399847,34.4706148 63.0935453,36.8805473 63.0935453,36.8805473 L58.3958133,36.8805473 C58.3958133,36.8805473 58.3508106,34.4706148 60.7953976,34.4706148 M61.0319628,43.2579402 C62.7050057,43.2579402 64.2763712,42.4920514 65.1325061,41.647107 C65.1325061,41.647107 64.5917513,40.92586 64.3213739,40.5879785 C64.0509965,40.2499767 63.938249,40.4641608 63.4651187,40.6781043 C62.9919883,40.8920478 62.4175417,41.3652985 61.1895927,41.3652985 C59.9616438,41.3652985 58.2835471,40.6557232 58.3621214,38.3011417 L64.6709273,38.3011417 C65.2003712,38.3011417 65.2341834,37.9292073 65.2228726,37.3885728 C65.211682,36.8479384 65.2002509,32.7359639 60.739084,32.7359639 C56.2779172,32.7359639 55.8834815,37.0392602 55.8834815,37.8390815 C55.8834815,38.6390232 56.0413521,43.2579402 61.0319628,43.2579402" id="Fill-5" fill="#474343"></path>
                                            <path d="M48.6715767,35.6756532 C48.6715767,35.6756532 49.4150844,34.6056952 50.9359121,34.6056952 C52.4568602,34.6056952 52.716047,35.9015092 52.716047,37.1406487 L52.716047,43.1227635 L55.1607544,43.1227635 L55.1607544,37.0165903 C55.1607544,35.394326 54.766439,32.6792412 51.7247836,32.6792412 C49.8491081,32.6792412 48.468944,34.2225703 48.468944,34.2225703 C48.468944,34.2225703 48.4013196,33.7720616 48.3561965,33.3889367 C48.3111938,33.0059322 48.018315,32.848182 47.6239996,32.848182 C47.2296842,32.848182 46.2044882,32.8437298 46.2044882,32.8437298 L46.2044882,43.1227635 L48.6715767,43.1227635 L48.6715767,35.6756532 L48.6715767,35.6756532 L48.6715767,35.6756532 L48.6715767,35.6756532 Z" id="Fill-7" fill="#474343"></path>
                                            <path d="M70.0043891,43.1240149 C70.4675322,43.1240149 70.5832879,42.9819074 70.7357437,42.4241863 C70.8883198,41.8663449 72.7981685,35.7099949 72.7981685,35.7099949 L75.2339716,43.1240149 L77.4226206,43.1240149 L80.6845969,32.8706111 L78.7853371,32.8706111 C78.3902997,32.8706111 78.2696106,33.1370177 78.0643307,33.8106148 C77.8590509,34.4840915 76.2968303,40.5565728 76.2968303,40.5565728 C76.2968303,40.5565728 74.3343982,34.0160149 74.1713535,33.4739366 C74.0081885,32.9318582 73.8346753,32.8706111 73.5031712,32.8706111 L72.3931438,32.8706111 C71.9510582,32.8706111 71.8594884,32.9621809 71.6456653,33.5273623 C71.4317218,34.0925437 69.5222341,40.3710268 69.5222341,40.3710268 C69.5222341,40.3710268 68.1016397,34.9633586 67.8571329,34.1078253 C67.6127464,33.2524124 67.6280281,32.8706111 66.7877765,32.8706111 L65.0311056,32.8706111 L68.2888704,43.1240149 L70.0043891,43.1240149 L70.0043891,43.1240149 L70.0043891,43.1240149 L70.0043891,43.1240149 Z" id="Fill-9" fill="#474343"></path>
                                            <path d="M49.6214472,51.129484 C52.0660343,51.129484 51.9195949,53.5394166 51.9195949,53.5394166 L47.2218629,53.5394166 C47.2218629,53.5394166 47.1768602,51.129484 49.6214472,51.129484 L49.6214472,51.129484 L49.6214472,51.129484 L49.6214472,51.129484 L49.6214472,51.129484 Z M53.4969768,54.9600109 C54.0264208,54.9600109 54.060233,54.5880766 54.0489222,54.0474421 C54.0377316,53.5068077 54.0263005,49.3948332 49.5651336,49.3948332 C45.1039668,49.3948332 44.7095311,53.6981294 44.7095311,54.4979508 C44.7095311,55.2978924 44.8674016,59.9168095 49.8580124,59.9168095 C51.5310552,59.9168095 53.1024208,59.1509207 53.9585557,58.3059763 C53.9585557,58.3059763 53.4178009,57.5847293 53.1474235,57.2468478 C52.8770461,56.9088459 52.7642986,57.1230301 52.2911683,57.3369736 C51.8180379,57.550917 51.2435912,58.0241677 50.0156423,58.0241677 C48.7876933,58.0241677 47.1095967,57.3145925 47.188171,54.9600109 L53.4969768,54.9600109 L53.4969768,54.9600109 L53.4969768,54.9600109 L53.4969768,54.9600109 Z" id="Fill-11" fill="#474343"></path>
                                            <path d="M40.5752117,49.2593437 C38.6995362,49.2593437 37.3193721,50.8026727 37.3193721,50.8026727 C37.3193721,50.8026727 37.2517477,50.3521641 37.2067449,49.9690392 C37.1616219,49.5860346 36.8687431,49.4282844 36.4744277,49.4282844 C36.0802326,49.4282844 35.0549163,49.4238323 35.0549163,49.4238323 L35.0549163,59.702866 L37.5220047,59.702866 L37.5220047,52.2557557 C37.5220047,52.2557557 38.2656328,51.185918 39.7864605,51.185918 C41.3072882,51.185918 41.5664751,52.4816117 41.5664751,53.7207511 L41.5664751,59.702866 L44.0111825,59.702866 L44.0111825,53.5966928 C44.0111825,51.9744284 43.6168671,49.2593437 40.5752117,49.2593437" id="Fill-13" fill="#474343"></path>
                                            <polygon id="Fill-15" fill="#474343" points="24.7471242 59.702866 33.850311 59.702866 33.850311 57.5852106 27.4379026 57.5852106 27.4379026 53.4822607 32.4761634 53.4822607 32.4761634 51.4021477 27.4379026 51.4021477 27.4379026 47.4137502 33.850311 47.4137502 33.850311 45.2634859 24.7471242 45.2634859"></polygon>
                                            <path d="M61.6255898,49.637126 C61.6255898,49.637126 61.1218961,49.2868507 60.3992051,49.2868507 C59.6765141,49.2868507 58.4610793,49.6919956 57.4536919,51.3562545 C57.4536919,51.3562545 57.3440729,50.568105 57.3002735,50.1191606 C57.256474,49.6700959 56.9877812,49.3947851 56.6590447,49.3947851 L55.129072,49.3947851 L55.129072,59.7028179 L57.6101185,59.7028179 L57.6101185,53.2499792 C57.6101185,53.2499792 58.3408715,51.6403493 59.8846819,51.6403493 C60.7605506,51.6403493 60.736124,51.7684988 60.977021,51.7684988 C61.217918,51.7684988 61.2423446,51.8597076 61.3299435,51.399693 C61.4175424,50.9397987 61.6255898,49.637126 61.6255898,49.637126" id="Fill-17" fill="#474343"></path>
                                            <path d="M65.864342,54.4273422 C64.9393794,54.4273422 63.9747085,53.8762392 63.9747085,52.7049648 C63.9747085,51.5335701 64.9291515,50.9824671 65.864342,50.9824671 C66.6813703,50.9824671 67.6951351,51.4255154 67.6951351,52.6458837 C67.6951351,53.8663723 66.7893046,54.4273422 65.864342,54.4273422 M64.2898479,59.0327825 C64.7034159,59.1509448 65.7661542,59.0918636 66.5337276,59.1312109 C67.3014213,59.1705582 68.6006046,59.308334 68.6006046,60.19419 C68.6006046,61.0799256 67.5081451,61.631149 65.794311,61.631149 C64.0804769,61.631149 63.3843785,60.9718709 63.3843785,60.2730049 C63.3843785,59.5741389 64.2898479,59.0327825 64.2898479,59.0327825 M78.0981068,50.2836011 C77.7438607,51.1203632 75.7852791,56.3655883 75.7852791,56.3655883 C75.7852791,56.3655883 73.7383767,51.1100149 73.4232372,50.411149 C73.108218,49.712283 73.0789783,49.4960532 72.5376219,49.4960532 L70.4313976,49.4960532 L70.5889072,49.8600459 L68.0469747,49.8600459 C67.4020157,49.5061608 66.6275836,49.2995573 65.794311,49.2995573 C63.5486264,49.2995573 61.7280613,50.7977634 61.7280613,52.6458837 C61.7280613,53.7597615 62.3899865,54.7457305 63.4071205,55.3541098 C62.9919883,55.5722647 62.1145553,56.1556157 62.1145553,57.1926038 C62.1145553,58.5508682 62.9904241,58.6491763 62.9904241,58.6491763 C62.9904241,58.6491763 61.2975271,59.1904124 61.2975271,60.6765856 C61.2975271,62.1626385 62.9804368,63.3436594 65.6182709,63.3436594 C68.2559847,63.3436594 70.79527,62.1332784 70.79527,59.7907296 C70.79527,57.4481809 68.5317768,57.3498727 66.4647796,57.2416977 C64.3977823,57.1334024 64.1223511,57.0156011 64.2405134,56.4348974 C64.2869601,56.2065145 64.5028288,56.0210888 64.7476966,55.8797032 C65.0817276,55.9527424 65.4323639,55.99221 65.794311,55.99221 C68.0399956,55.99221 69.8604405,54.494004 69.8604405,52.6458837 C69.8604405,52.2309922 69.7679081,51.8339092 69.600291,51.467149 C70.4733922,51.3636667 70.8914122,51.1794443 71.0922399,51.0243413 L74.5552846,59.0327825 L72.6064496,63.1076959 L74.4469892,63.1076959 C74.8801706,63.1076959 75.1457349,62.910839 75.4410202,62.1923595 C75.7363056,61.47388 80.8932098,49.4960532 80.8932098,49.4960532 L79.2004332,49.4960532 C78.6295964,49.4960532 78.452353,49.4469593 78.0981068,50.2836011" id="Fill-19" fill="#474343"></path>
                                            <polygon id="Fill-21" fill="#474343" points="8.38073655 31.7064722 0.167256153 31.7064722 0 32.8963974 3.40985962 32.8963974 2.13317776 43.2579763 3.60057976 43.2579763 4.87726162 32.8963974 8.2134804 32.8963974"></polygon>
                                            <path d="M12.8941499,34.9782432 C11.3336139,34.9782432 10.3328445,36.1543307 9.86007511,36.8885732 L10.5554516,31.3255613 L9.08804959,31.3255613 L7.59646162,43.2580244 L9.0637433,43.2580244 L9.60401677,38.936318 C10.4112985,36.9740062 11.5506859,36.1607081 12.3270432,36.1607081 C13.2440642,36.1607081 13.4371909,36.7761867 13.3285345,37.7415796 C13.2199985,38.7068521 12.6891107,43.2580244 12.6891107,43.2580244 L14.1370195,43.2580244 C14.1370195,43.2580244 14.3179931,41.5907573 14.5111198,39.6359059 C14.7041262,37.6810545 15.1626968,34.9782432 12.8941499,34.9782432" id="Fill-23" fill="#474343"></path>
                                            <path d="M16.7642768,38.7495446 C16.7642768,38.7495446 17.3584572,35.9708062 19.3328018,35.9708062 C21.3070261,35.9708062 21.4987088,38.6307807 16.7642768,38.7495446 M19.4970498,34.9782191 C16.4809039,34.9782191 15.283398,38.1826786 15.283398,39.8281663 C15.283398,42.4604653 16.4078647,43.4293477 18.3455092,43.4293477 C20.283274,43.4293477 21.7000179,41.8390906 21.7000179,41.8390906 L21.0326778,41.1444361 C21.0326778,41.1444361 19.9267417,42.3053623 18.3453889,42.3053623 C16.30715,42.3053623 16.6271026,39.6636777 16.6271026,39.6636777 C21.0417025,39.4534644 21.7751026,38.0153021 21.8794272,37.2917688 C22.0166013,36.3409356 21.5901582,34.9782191 19.4970498,34.9782191" id="Fill-25" fill="#474343"></path>
                                            <path d="M109.528306,34.4706148 C111.972893,34.4706148 111.826574,36.8805473 111.826574,36.8805473 L107.128721,36.8805473 C107.128721,36.8805473 107.083719,34.4706148 109.528306,34.4706148 M112.198027,40.6781043 C111.724896,40.8920478 111.15045,41.3652985 109.92238,41.3652985 C108.694431,41.3652985 107.016455,40.6557232 107.095029,38.3011417 L113.403835,38.3011417 C113.933279,38.3011417 113.967091,37.9292073 113.95578,37.3885728 C113.94447,36.8479384 113.933159,32.7359639 109.471872,32.7359639 C105.010825,32.7359639 104.616389,37.0392602 104.616389,37.8390815 C104.616389,38.6390232 104.77414,43.2579402 109.764871,43.2579402 C111.437793,43.2579402 113.009399,42.4920514 113.865534,41.647107 C113.865534,41.647107 113.324659,40.92586 113.054282,40.5879785 C112.783904,40.2499767 112.671157,40.4641608 112.198027,40.6781043" id="Fill-27" fill="#474343"></path>
                                            <path d="M82.8708033,40.397126 C82.8708033,39.8212354 83.3546428,38.7156602 86.7694359,38.7622272 L86.7694359,40.4843639 C86.7694359,40.4843639 85.8962144,41.6321743 84.4053484,41.6321743 C83.4510257,41.6321743 82.8708033,40.9898625 82.8708033,40.397126 M86.9498078,41.8070111 C86.9498078,41.8070111 87.1429345,43.0982527 87.8041378,43.0982527 L89.0953794,43.0982527 L89.0953794,36.6669528 C89.0953794,35.0949856 88.3321378,32.6642363 85.2942126,32.6642363 C83.2919519,32.6642363 81.8050567,33.7895453 81.1054687,34.3017823 C81.1054687,34.3017823 81.5171114,34.9754997 81.7167358,35.2873903 C81.9163603,35.5994013 82.3780594,35.6429601 82.8333812,35.3623548 C83.2888233,35.0815088 83.8688051,34.6136729 84.9979646,34.6136729 C86.1270038,34.6136729 86.7694359,35.4371989 86.7694359,36.528816 L86.7694359,37.3216583 C86.5150622,37.3217787 86.1815125,37.321899 86.0955982,37.321899 C83.4817094,37.321899 80.5497933,38.2888562 80.5497933,40.5782199 C80.5497933,42.8674633 82.5958534,43.2579282 83.6375344,43.2579282 C84.6792153,43.2579282 85.7520613,42.9299136 86.9498078,41.8070111" id="Fill-29" fill="#474343"></path>
                                            <path d="M93.0374746,35.8157273 C93.4690917,35.2417619 94.3542257,34.6058275 95.3961473,34.6058275 C97.1797717,34.6058275 97.4888948,36.257091 97.4888948,37.9611785 C97.4888948,40.3452405 96.5088219,41.4314428 95.0694563,41.4314428 C93.6300908,41.4314428 93.0374746,40.442586 93.0374746,40.442586 L93.0374746,35.8157273 L93.0374746,35.8157273 L93.0374746,35.8157273 L93.0374746,35.8157273 Z M92.8710607,42.5973025 L92.8710607,41.9616088 C92.8710607,41.9616088 93.7552321,43.2580244 95.5996222,43.2580244 C98.5311774,43.2580244 100.023728,40.6106844 100.023728,37.9176197 C100.023728,33.9090071 97.9227982,32.6644529 96.1272613,32.6644529 C94.3317243,32.6644529 93.0374746,34.1732478 93.0374746,34.1732478 L93.0374746,28.2470855 L90.5557061,28.2470855 L90.5557061,43.1360117 L92.0851974,43.1360117 C92.7297954,43.1360117 92.8710607,42.8445768 92.8710607,42.5973025 L92.8710607,42.5973025 L92.8710607,42.5973025 L92.8710607,42.5973025 L92.8710607,42.5973025 Z" id="Fill-31" fill="#474343"></path>
                                            <polygon id="Fill-33" fill="#474343" points="91.2344292 53.1191223 85.6018676 53.1191223 86.2486315 47.8836438 84.7329779 47.8836438 83.2667792 59.446218 84.8203362 59.446218 85.4719132 54.1713922 91.1009852 54.1713922 90.4320809 59.446218 91.9856379 59.446218 93.4139333 47.8836438 91.8982797 47.8836438"></polygon>
                                            <path d="M107.389316,54.3640135 C107.100769,57.4442943 105.765126,58.4981284 104.496747,58.4981284 C103.644703,58.4981284 103.133549,57.97807 102.888922,57.635977 L103.183486,55.3561192 C104.026986,53.3613189 105.177323,52.2763198 106.020222,52.2763198 C107.000054,52.2763198 107.496769,53.14906 107.389316,54.3640135 M106.544131,51.1761593 C104.957604,51.1761593 103.848299,52.761483 103.425586,53.4829706 L104.196047,47.519266 L102.80746,47.519266 L101.228634,59.446194 L102.655004,59.446194 L102.766909,58.5803125 C103.161826,59.1802687 103.829407,59.5991311 104.771938,59.5991311 C106.872386,59.5991311 108.785484,56.921348 108.785484,54.1765422 C108.785484,53.3711858 108.597651,51.1761593 106.544131,51.1761593" id="Fill-35" fill="#474343"></path>
                                            <path d="M99.0569393,55.5080696 C98.47419,57.0759457 97.4290195,58.4384215 96.2465546,58.4384215 C95.06421,58.4384215 95.1070469,57.3759238 95.2355573,56.1764926 C95.3640678,54.9769411 95.8010997,51.2496558 95.8010997,51.2496558 L94.4472875,51.2496558 C94.4472875,51.2496558 93.8989521,55.9365582 93.7960715,56.8704252 C93.6933112,57.8044124 93.8047351,59.599107 95.6983395,59.599107 C97.5919438,59.599107 98.8342119,57.5388481 98.8342119,57.5388481 C98.8342119,57.5388481 98.791375,58.0528901 98.7399949,58.7811161 C98.6886148,59.5093422 98.791375,59.5094625 99.13419,59.5094625 L99.9395464,59.5094625 L100.933457,51.2496558 L99.5454716,51.2496558 L99.0569393,55.5080696 L99.0569393,55.5080696 L99.0569393,55.5080696 L99.0569393,55.5080696 Z" id="Fill-37" fill="#474343"></path>
                                            <path d="M92.4354848,21.7768113 C92.4354848,21.7768113 96.8990582,20.1255479 97.5701284,19.9069116 C98.2411985,19.6882753 98.9424711,18.8889353 99.5154738,17.8861203 C99.9638166,17.10134 100.952553,15.3145871 101.361308,14.5748095 L100.948101,43.2580365 L103.624801,43.2580365 L103.303886,14.2733874 C103.407609,14.1883154 103.504473,14.0916919 103.590026,13.9807493 C103.59857,13.9695588 103.605669,13.9576463 103.613851,13.9463355 L113.814792,19.4547183 L114.273363,18.506412 C114.273363,18.506412 110.976611,15.0741714 110.508054,14.5462917 C110.039616,14.0185324 109.026694,13.6947293 107.878402,13.5700693 C106.912768,13.4652634 104.637724,13.250598 103.938256,13.1848988 C104.040896,12.5713455 103.816243,11.9280711 103.296666,11.5274986 C103.065877,11.3495333 102.803321,11.2408769 102.533304,11.1965962 L102.533304,0.102579763 L101.450351,0.102579763 C101.450351,0.102579763 99.9535887,4.62162443 99.7090819,5.26104831 C99.4644547,5.90059253 99.6373663,6.91435734 100.041549,7.95459435 C100.362464,8.78076755 101.119208,10.6516299 101.4169,11.386474 C101.202836,11.5018687 101.008024,11.6620255 100.849432,11.8677867 C100.374376,12.4839872 100.364028,13.3081149 100.764119,13.9124029 L91.7493736,20.9774713 L92.4354848,21.7768113 L92.4354848,21.7768113 L92.4354848,21.7768113 L92.4354848,21.7768113 Z" id="Fill-39" fill="#7E7D7D"></path>
                                        </g>
                                        <g id="Group-46" transform="translate(3.850501, 0.057878)">
                                            <g id="Clip-45" transform="translate(-0.000000, 0.000000)"></g>
                                            <g id="Fill-44-Clipped" transform="translate(-0.000000, 0.000000)">
                                                <g id="path-1" transform="translate(-0.000000, 0.000000)"></g>
                                                <g id="Group" transform="translate(-0.000000, 0.000000)" fill="#2EA395">
                                                    <g id="Fill-44-Clipped" transform="translate(-0.000000, 0.000000)">
                                                        <path d="M62.0764715,13.6711088 C56.7319756,14.6544306 53.1465572,17.4236631 49.6582436,20.120458 C48.0510202,21.3629666 46.3919355,22.2697597 44.764858,22.9255482 C40.8290439,21.7880861 37.5982326,18.8720532 35.3604897,16.2533513 C37.1044058,15.5140551 38.6827504,14.6374644 40.1720521,13.7348828 C41.1806428,13.1236157 42.248796,12.30755 43.4854086,11.3626129 C47.7852153,8.07717265 53.6739555,3.57762115 62.9584769,3.57762115 C72.5628306,3.57762115 80.032683,8.99852543 84.2883293,12.6532529 C81.9212335,11.0006658 77.9125006,8.74728022 73.6518005,8.74728022 C68.1767486,8.74728022 64.5465681,11.1674407 62.0764715,13.6711088 M60.1891242,15.8303978 C57.1708124,19.67019 53.75626,23.4188937 48.1683402,23.4188937 C47.2611861,23.4188937 46.3823092,23.3131253 45.5336346,23.1234881 C47.0082563,22.4769648 48.5008069,21.6235974 49.9525663,20.5011763 C53.2419774,17.9581608 56.6192281,15.3502884 61.496971,14.2814133 C61.0142144,14.8097743 60.5798297,15.3335628 60.1891242,15.8303978 M36.3152937,24.5208591 C30.7196729,24.5208591 25.017682,22.8942629 18.8833521,19.5482975 C14.6576675,17.2432912 11.6793046,15.18219 9.81806855,13.7593094 C13.2906191,15.6212675 19.3014924,18.2881006 25.2464259,18.2881006 C29.0545717,18.2881006 32.1764861,17.5396594 34.8932554,16.446117 C37.0704733,19.0189739 40.2003293,21.9058873 44.0353083,23.2031453 C41.1645189,24.2378472 38.4342727,24.5208591 36.3152937,24.5208591 M15.6346119,15.1168518 C20.3921469,15.1168518 23.4596729,12.5704671 25.8329054,10.0794334 C26.2725845,9.61797484 26.7557021,9.02114713 27.3151077,8.32962115 C29.8244314,5.22924558 33.6164532,0.543666727 39.7394724,0.543666727 C45.362167,0.543666727 49.3511661,4.94575242 50.2957422,6.09428478 C47.4478151,7.58009699 45.1147723,9.36047256 43.1200923,10.8845491 C41.8971971,11.8190177 40.8411971,12.6259384 39.8602819,13.2203595 C36.0328835,15.5399256 31.6135909,17.6864598 25.2464259,17.6864598 C21.0824696,17.6864598 16.8761579,16.3449211 13.5694195,14.91085 C14.2428963,15.0399621 14.9355052,15.1168518 15.6346119,15.1168518 M85.9211825,22.9935336 L86.2784368,22.6708135 C84.1572919,20.322128 81.0020467,17.9975081 77.6219081,16.2929393 C74.9103129,14.9256503 70.7498461,13.2958053 66.327786,13.2958053 C65.1103056,13.2958053 63.9739263,13.379674 62.9060139,13.5335737 C65.2926027,11.2789849 68.6969273,9.22859289 73.6518005,9.22859289 C80.1537331,9.22859289 86.0919282,14.6629739 86.1511296,14.7178436 L86.3578534,14.4951161 C86.5009236,14.6253112 86.6367741,14.7486476 86.7633593,14.8630797 L87.1666994,14.4165418 C87.0310895,14.2941681 86.8858534,14.1620478 86.7312317,14.0213841 C83.0967194,10.7160897 74.5857878,2.97598031 62.9584769,2.97598031 C58.0232171,2.97598031 54.0381889,4.21367584 50.7337367,5.87035406 C49.8715854,4.80424649 45.7000485,0.0623540565 39.7394724,0.0623540565 C33.3867468,0.0623540565 29.5078479,4.85538596 26.9410075,8.02699581 C26.3882199,8.71021914 25.9106374,9.30006782 25.484435,9.74756828 C23.1814742,12.1647205 20.2103311,14.6355391 15.6346119,14.6355391 C13.6990129,14.6355391 11.7821852,14.0098326 10.220085,13.2931581 C9.33916244,12.8236376 8.61647147,12.402489 8.09581149,12.0863869 C3.72874129,9.03678979 0.569525251,5.8367825 0.533908113,5.80044339 L0.0185425706,6.30618268 C0.0551223336,6.34336408 3.34597739,9.67765761 7.86815059,12.8070323 C9.31786436,14.0452091 12.8029291,16.7799074 18.6529236,19.9708901 C24.8596912,23.3563231 30.6371278,25.0021717 36.3152937,25.0021717 C38.6237896,25.0021717 41.6429437,24.6734352 44.7907285,23.4328518 C45.8669437,23.7298217 46.9939373,23.9002064 48.1683402,23.9002064 C54.4576529,23.9002064 58.282404,19.0347369 60.5675562,16.1277287 C61.0713703,15.4869812 61.6485845,14.800509 62.3129163,14.1180077 C63.5494086,13.8988901 64.8807194,13.777118 66.327786,13.777118 C73.6480704,13.777118 81.8863384,18.5256284 85.9211825,22.9935336" id="Fill-44"></path>
                                                    </g>
                                                </g>
                                            </g>
                                        </g>
                                    </g>
                                </g>
                            </g>
                        </g>
                    </g>
                </g>
            </g>
        </g>
    </g>
</svg>