<?xml version="1.0" encoding="UTF-8"?>
<svg width="500px" height="500px" viewBox="0 0 500 500" version="1.1" xmlns="http://www.w3.org/2000/svg" xmlns:xlink="http://www.w3.org/1999/xlink">
    <title>Strut Square 512</title>
    <g id="Strut-Square-512" stroke="none" stroke-width="1" fill="none" fill-rule="evenodd">
        <g id="STRUT-CLOTHING-Logo" transform="translate(50.077088, 50.246784)"></g>
        <g id="Group-18" transform="translate(50.077088, 50.246784)">
            <path d="M4.94243339,395.162552 L394.942433,395.162552 L394.942433,5.16255227 L4.94243339,5.16255227 L4.94243339,395.162552 Z M0,400 L400,400 L400,0 L0,0 L0,400 Z" id="Border" fill="#231F20"></path>
            <rect id="Inner-Background" fill="#231F20" x="11.731105" y="11.4201499" width="376.5" height="376.5"></rect>
            <path d="M338.662107,153.753216 C341.980294,153.753216 346.231745,153.916657 351.414271,154.23989 C358.458219,154.646304 362.384486,155.173108 363.194529,155.819575 C363.680117,156.225989 363.922912,157.44085 363.922912,159.46489 C357.040097,160.845382 352.060993,161.53125 348.984871,161.53125 C347.284582,161.53125 346.028322,161.451718 345.220467,161.288277 L343.884005,162.626449 C343.884005,166.678907 344.045139,173.401872 344.370322,182.80191 C344.693319,191.471572 344.855182,198.196726 344.855182,202.975182 C344.855182,205.488085 344.653218,207.676296 344.248561,209.539084 C343.194994,210.350451 342.061955,210.753216 340.847255,210.753216 C338.82397,210.753216 337.811962,208.565735 337.811962,204.191503 C337.811962,186.447225 338.13423,172.227141 338.783868,161.53125 L335.989912,160.681941 C336.232706,165.106519 335.86888,168.792694 334.897703,171.740466 L334.411385,167.439199 C332.87296,165.882133 330.443559,165.064929 327.123914,164.981019 C323.31795,164.899299 320.767518,164.489237 319.473344,163.751565 C324.410889,164.325797 328.09582,163.506403 330.52522,161.291926 C329.147199,161.048224 328.500477,160.924913 328.582137,160.924913 C327.772094,160.924913 326.577809,161.067194 324.999282,161.348838 C323.420026,161.63413 322.266571,161.774222 321.53746,161.774222 C318.459879,161.774222 316.922912,160.723531 316.922912,158.615582 C316.922912,155.374491 321.617662,153.753216 331.010079,153.753216 L338.662107,153.753216 Z M353.619006,162.753216 C355.846749,162.753216 358.281137,163.158588 360.922912,163.968603 C359.271245,163.968603 357.228589,164.517134 354.794202,165.611275 C352.359071,166.706876 350.728961,167.253216 349.903871,167.253216 C348.582984,167.253216 347.922912,166.322685 347.922912,164.45578 C347.922912,164.132943 347.963051,163.847357 348.046303,163.603403 C350.028006,163.036612 351.88483,162.753216 353.619006,162.753216 Z M290.195782,207.331393 C287.115548,209.947904 280.147258,211.253216 269.289452,211.253216 C259.158467,211.253216 252.676914,208.722794 249.840413,203.654593 C247.895655,200.305959 246.922912,193.073765 246.922912,181.961689 C246.922912,163.821971 248.21893,154.753216 250.812427,154.753216 L252.879052,155.243996 L254.094799,199.487748 C258.551323,202.84006 263.858724,204.513273 270.018462,204.513273 C275.771005,204.513273 279.782388,203.819412 282.05261,202.430219 C284.076909,201.202901 285.291927,198.958706 285.698392,195.688068 C285.942126,191.686043 286.204102,187.620003 286.488701,183.492892 C286.77184,179.367988 286.954275,177.059778 287.036006,176.569734 C287.27828,179.75502 287.400147,182.943248 287.400147,186.128533 C287.400147,192.094413 286.91414,197.363489 285.942126,201.939439 C288.939169,201.448659 290.438785,197.486367 290.438785,190.051092 C290.438785,187.02989 290.135943,182.473071 289.52734,176.385048 C288.920196,170.299233 288.615894,165.743149 288.615894,162.71974 C288.615894,157.407988 289.628044,154.753216 291.654533,154.753216 L292.87028,154.876095 C294.572034,156.428636 295.422912,167.295691 295.422912,187.476522 C295.422912,197.854268 293.679562,204.47354 290.195782,207.331393 L290.195782,207.331393 Z M272.354233,215.253216 C268.009031,215.253216 263.863808,214.664731 259.922912,213.488469 C261.77272,213.33234 263.181994,213.253216 264.147112,213.253216 C265.99692,213.253216 268.77272,213.4701 272.474511,213.901044 C276.174852,214.3334 278.991952,214.548871 280.922912,214.548871 C278.105812,215.017963 275.251035,215.253216 272.354233,215.253216 L272.354233,215.253216 Z M221.555512,198.827509 C221.555512,199.970078 221.473214,201.964808 221.310823,204.813165 C221.146963,207.338845 221.106549,209.333574 221.188847,210.798821 C218.985917,211.615047 217.924131,212.02206 218.006429,212.02206 L217.149652,211.899589 C215.925476,210.434343 215.313387,208.317142 215.313387,205.547255 C215.313387,204.651093 215.374376,203.390453 215.497087,201.760202 C215.619799,200.132883 215.680787,198.910378 215.680787,198.096352 C215.680787,194.351834 214.007648,191.703683 210.662839,190.156301 C212.783472,192.192832 213.845257,195.368266 213.845257,199.684069 C213.845257,201.802736 213.640248,204.203745 213.233169,206.89003 C212.254416,205.589056 211.620283,203.674995 211.335181,201.149316 C211.049344,198.627302 210.662839,196.995584 210.173463,196.263694 C209.274802,194.879117 207.35771,194.187562 204.41998,194.187562 C195.036587,194.187562 188.916439,194.961253 186.061007,196.508635 L185.326942,195.407867 C186.30643,193.046459 187.2433,191.376606 188.14196,190.400509 C186.019123,189.504347 184.999956,189.055533 185.082254,189.055533 C182.47004,189.055533 181.165771,190.888191 181.165771,194.55424 C181.165771,195.69461 181.288482,197.38353 181.532436,199.622467 C181.777124,201.863605 181.899836,203.552525 181.899836,204.691428 C181.899836,209.171503 180.593362,211.859254 177.983353,212.753216 L174.922912,209.089367 C175.657711,203.959538 176.025111,197.893946 176.025111,190.888191 C176.025111,187.794893 175.860516,182.21625 175.535735,174.153728 C175.291046,167.067304 175.248428,161.490861 175.413023,157.417799 L177.615953,154.975721 C179.080409,154.975721 181.000441,154.897986 183.372375,154.741781 L182.603039,165.913001 L181.532436,180.383592 C182.022547,181.442559 182.796291,182.175915 183.858077,182.582928 C186.141835,180.547864 189.079565,179.527765 192.670531,179.527765 C194.302522,179.527765 196.749405,179.79324 200.014121,180.322723 C203.277366,180.853673 205.766868,181.115482 207.480421,181.115482 C207.480421,181.115482 213.966499,182.778734 214.639576,178.282525 L214.639576,178.282525 C215.087804,177.113555 215.313387,175.616774 215.313387,173.78705 C215.313387,170.449544 215.149527,168.250208 214.824011,167.189774 C214.251602,165.155443 212.906183,163.567726 210.784816,162.427357 C211.354286,163.485591 211.844397,164.218947 212.254416,164.62596 C213.557951,166.662491 214.212657,169.755789 214.212657,173.90952 C214.212657,174.428003 214.184735,174.928886 214.142116,175.420235 L214.142116,175.420235 L214.142116,175.420968 C214.120072,175.672509 214.09362,175.921117 214.060554,176.165325 C213.846727,177.339429 213.065635,179.537298 210.215346,180.01398 C211.163973,178.986548 211.641593,177.240426 211.641593,174.765347 C211.641593,174.276199 211.599709,173.502507 211.518881,172.443541 L211.518881,170.244938 C209.315951,167.720725 205.644157,166.457885 200.503497,166.457885 C198.789944,166.457885 196.260763,166.662491 192.91522,167.067304 C189.568206,167.476517 187.080909,167.678923 185.449654,167.678923 L184.837565,166.580355 C184.837565,164.812233 184.848587,163.634462 184.871366,163.031643 L185.535625,162.059945 L184.959542,159.395661 L187.002286,154.470439 C187.416713,154.435971 187.830405,154.402237 188.264672,154.364835 C192.996048,153.957822 196.587014,153.753216 199.035367,153.753216 C206.623645,153.753216 212.211797,155.138526 215.803499,157.906947 C219.882372,161.082381 221.922912,166.377949 221.922912,173.78705 C221.922912,178.916879 220.53414,182.582928 217.76174,184.781531 C220.289452,188.284042 221.555512,192.964323 221.555512,198.827509 L221.555512,198.827509 Z M125.162107,153.753216 C128.480294,153.753216 132.731745,153.916657 137.914271,154.23989 C144.958219,154.646304 148.884486,155.173108 149.694529,155.819575 C150.180117,156.225989 150.422912,157.44085 150.422912,159.46489 C143.540097,160.845382 138.560993,161.53125 135.484871,161.53125 C133.784582,161.53125 132.528322,161.451718 131.720467,161.288277 L130.384005,162.626449 C130.384005,166.678907 130.545139,173.401872 130.870322,182.80191 C131.193319,191.471572 131.355182,198.196726 131.355182,202.975182 C131.355182,205.488085 131.153218,207.676296 130.748561,209.539084 C129.695723,210.350451 128.561955,210.753216 127.347255,210.753216 C125.32397,210.753216 124.311962,208.565735 124.311962,204.191503 C124.311962,186.447225 124.63423,172.227141 125.283868,161.53125 L122.489912,160.681941 C122.732706,165.106519 122.36888,168.792694 121.397703,171.740466 L120.911385,167.439199 C119.37296,165.882133 116.943559,165.064929 113.623914,164.981019 C109.81795,164.899299 107.267518,164.489237 105.973344,163.751565 C110.910889,164.325797 114.59582,163.506403 117.02522,161.291926 C115.647199,161.048224 115.000477,160.924913 115.082137,160.924913 C114.272094,160.924913 113.077809,161.067194 111.499282,161.348838 C109.920026,161.63413 108.766571,161.774222 108.038189,161.774222 C104.959879,161.774222 103.422912,160.723531 103.422912,158.615582 C103.422912,155.374491 108.117662,153.753216 117.510079,153.753216 L125.162107,153.753216 Z M140.119006,162.753216 C142.346749,162.753216 144.781137,163.158588 147.422912,163.968603 C145.771245,163.968603 143.728589,164.517134 141.294202,165.611275 C138.859071,166.706876 137.228961,167.253216 136.403871,167.253216 C135.082984,167.253216 134.422912,166.322685 134.422912,164.45578 C134.422912,164.132943 134.463051,163.847357 134.546303,163.603403 C136.527263,163.036612 138.38483,162.753216 140.119006,162.753216 Z M54.8060712,212.253216 C49.9327854,212.253216 45.7484738,211.321041 42.2582562,209.45596 C38.0337179,207.105447 35.9229115,203.700853 35.9229115,199.241448 C35.9229115,196.48799 37.0587682,195.107612 39.3341385,195.107612 C40.8759194,195.107612 42.2370458,196.50697 43.4153233,199.302766 C44.5914067,202.100022 45.7089785,203.497191 46.765113,203.497191 C46.6831968,203.497191 47.4540873,203.25411 49.0799786,202.769408 L47.7400628,201.917529 C48.6323648,201.917529 50.5815329,202.038705 53.5875669,202.282516 C56.26813,202.525597 58.4184317,202.647502 60.0450545,202.647502 C63.9192546,202.647502 67.1373932,202.052574 69.7053215,200.869288 C69.6153599,201.000683 68.941745,201.842342 65.8925586,202.794957 C65.8925586,202.794957 78.8148479,201.62773 77.3440123,192.18991 C77.3440123,191.298613 76.8971299,190.326289 76.0040964,189.270748 L75.8826848,189.392653 C75.8826848,189.392653 76.2147382,195.738308 73.8113738,197.904868 C73.9730121,194.582761 72.5109532,192.353424 69.4251972,191.216856 C67.6376674,190.5701 64.7142811,190.244532 60.6535753,190.244532 C54.0754074,190.244532 49.7689529,190.043059 47.7400628,189.636464 C42.946499,188.745897 39.5769616,186.475682 37.6277936,182.828007 L39.2119955,183.313439 L39.6925221,182.353524 C41.8991412,184.158747 45.0551112,185.289475 47.9251057,185.98879 L47.7400628,185.98879 C48.26813,186.110695 48.8276473,186.218001 49.4010611,186.320197 C52.4765777,186.947244 54.9048095,187.084479 54.9048095,187.084479 L55.0474316,186.952354 C56.4977881,187.037761 58.0373749,187.084479 59.679357,187.084479 L65.8925586,187.084479 C62.5471573,186.401224 59.2770896,186.041348 56.0757731,185.997549 L56.0772359,185.996089 C44.8459322,185.835495 40.1423301,181.917001 38.7490224,180.416906 C36.9483275,176.646596 36.0443231,173.921607 36.0443231,172.249239 C36.0443231,165.035646 38.1558609,160.08935 42.3796678,157.416189 C45.7089785,155.308757 51.2734327,154.253216 59.0701048,154.253216 C75.3948443,154.253216 83.557214,158.630864 83.557214,167.386159 L83.0693734,170.06005 L79.5367349,171.277645 C78.2363144,170.87251 77.2408856,169.433003 76.5519114,166.960585 C75.8614744,164.488167 74.5420375,163.05085 72.5928695,162.643525 C73.9730121,166.210903 74.6641805,168.278186 74.6641805,168.845375 L74.6641805,169.573158 C70.8455665,167.386159 66.5010794,166.2912 61.628525,166.2912 C56.0245755,166.2912 50.8653142,167.505875 46.1565923,169.938875 C46.1565923,169.451983 46.3584573,168.358483 46.765113,166.656186 C47.1710373,165.279457 47.3750966,164.144349 47.3750966,163.252322 L47.2529536,161.913552 C43.8409953,162.887336 42.1361132,165.319606 42.1361132,169.210362 C42.1361132,174.885171 44.1650033,177.720386 48.2271719,177.720386 C49.4449448,177.720386 50.5815329,177.3554 51.6383988,176.626887 C61.7082471,176.626887 70.3174992,177.234954 77.4661553,178.450359 C75.5967093,178.370792 74.2165667,178.370792 73.3235332,178.450359 C77.2218693,180.721305 79.9024325,182.949912 81.3644914,185.138371 C83.0693734,187.650938 83.9229115,191.056992 83.9229115,195.350693 C83.9229115,206.620015 74.2165667,212.253216 54.8060712,212.253216 L54.8060712,212.253216 Z M58.0115351,215.753216 C54.6878203,215.753216 51.3268916,215.253762 47.9229115,214.253216 C49.7857971,214.253216 52.58122,214.344919 56.3099099,214.526688 C60.035681,214.707637 62.8734256,214.797703 64.8180359,214.797703 C67.0056313,214.797703 68.7072565,214.707637 69.9229115,214.526688 C63.9249016,215.343009 59.9561454,215.753216 58.0115351,215.753216 L58.0115351,215.753216 Z" id="Strut" fill="#FFFFFF"></path>
            <path d="M115.922912,241.052831 C114.178967,244.416283 111.159936,245.753216 107.202323,245.753216 C100.89696,245.753216 97.9229115,241.988081 97.9229115,237.286833 C97.9229115,231.716709 101.702323,228.753216 107.179832,228.753216 C110.668586,228.753216 114.22395,230.090149 115.677237,233.387229 L113.97741,234.168184 C112.837271,231.516729 110.310455,230.402187 107.202323,230.402187 C102.550939,230.402187 99.9358873,232.919173 99.9358873,237.531636 C99.9358873,241.25281 102.461839,244.016323 107.381389,244.016323 C110.601112,244.016323 112.837271,242.67939 114.178967,240.206365 L115.922912,241.052831 Z M127.922912,229.253216 L129.850652,229.253216 L129.850652,243.535889 L142.422912,243.535889 L142.422912,245.253216 L127.922912,245.253216 L127.922912,229.253216 Z M162.42248,244.015461 C166.36949,244.015461 169.916191,241.920846 169.916191,236.996345 C169.916191,233.387229 167.127834,230.401325 162.42248,230.401325 C157.717127,230.401325 154.929632,233.387229 154.929632,236.996345 C154.929632,241.920846 158.431471,244.015461 162.42248,244.015461 M162.42248,228.753216 C167.931039,228.753216 171.922912,231.961511 171.922912,237.353206 C171.922912,243.101761 167.105403,245.753216 162.42248,245.753216 C157.739558,245.753216 152.922912,243.101761 152.922912,237.353206 C152.922912,231.961511 156.914784,228.753216 162.42248,228.753216 M189.198499,230.970543 L181.422912,230.970543 L181.422912,229.253216 L198.922912,229.253216 L198.922912,230.970543 L191.147324,230.970543 L191.147324,245.253216 L189.198499,245.253216 L189.198499,230.970543 Z M210.422912,229.253216 L212.364339,229.253216 L212.364339,236.032271 L224.982337,236.032271 L224.982337,229.253216 L226.922912,229.253216 L226.922912,245.253216 L224.982337,245.253216 L224.982337,237.748746 L212.364339,237.748746 L212.364339,245.253216 L210.422912,245.253216 L210.422912,229.253216 Z M240.422912,245.253216 L242.422912,245.253216 L242.422912,229.253216 L240.422912,229.253216 L240.422912,245.253216 Z M255.422912,229.253216 L258.240398,229.253216 L270.439331,242.414561 L270.439331,229.253216 L272.422912,229.253216 L272.422912,245.253216 L270.439331,245.253216 L257.316646,230.970543 L257.316646,245.253216 L255.422912,245.253216 L255.422912,229.253216 Z M301.922912,237.487675 L301.922912,245.486002 L300.183347,245.486002 L300.183347,243.124172 C299.091484,244.394733 297.330358,245.753216 293.674427,245.753216 C287.387157,245.753216 284.422912,241.988081 284.422912,237.286833 C284.422912,231.716709 288.190099,228.753216 293.652003,228.753216 C297.508886,228.753216 300.473131,230.490971 301.677113,233.209661 L300.028106,234.078538 C298.756853,231.18228 295.769321,230.401325 293.584732,230.401325 C289.037889,230.401325 286.428973,232.919173 286.428973,237.531636 C286.428973,241.25281 288.948194,244.015461 293.763259,244.015461 C296.705943,244.015461 299.87114,242.589744 300.139362,239.22543 L293.563171,239.22543 L293.563171,237.487675 L301.922912,237.487675 Z" id="clothing" fill="#FEFEFE"></path>
        </g>
    </g>
</svg>