<?xml version="1.0" encoding="UTF-8"?>
<svg width="512px" height="512px" viewBox="0 0 512 512" version="1.1" xmlns="http://www.w3.org/2000/svg" xmlns:xlink="http://www.w3.org/1999/xlink">
    <title>pac-logo-evcharging-reverse</title>
    <g id="Logos" stroke="none" stroke-width="1" fill="none" fill-rule="evenodd">
        <g id="pac-logo-evcharging-reverse">
            <path d="M491.790256,355.518351 C478.653922,386.510348 460.401749,413.674411 437.0377,437.03828 C413.677613,460.402149 386.509377,478.65418 355.521102,491.790412 C324.703224,505.097039 291.527542,511.829605 255.998019,512 C220.468496,511.829605 187.292814,505.097039 156.478898,491.790412 C125.490623,478.65418 98.3223869,460.402149 74.9583375,437.03828 C51.5942881,413.674411 33.3421152,386.510348 20.2097442,355.518351 C6.89905189,324.704673 0.170395883,291.529248 0,256 C0.170395883,220.466789 6.89905189,187.295327 20.2097442,156.477687 C33.3421152,125.489652 51.5942881,98.3255886 74.9583375,74.9577574 C98.3223869,51.5938888 125.490623,33.3458199 156.478898,20.2095878 C187.292814,6.90296116 220.468496,0.170394564 255.998019,0 C291.527542,0.170394564 324.703224,6.90296116 355.521102,20.2095878 C386.509377,33.3458199 413.677613,51.5938888 437.0377,74.9577574 C460.401749,98.3255886 478.653922,125.489652 491.790256,156.477687 C505.100948,187.295327 511.829604,220.466789 512,256 C511.829604,291.529248 505.100948,324.704673 491.790256,355.518351 Z" id="Fill-1" fill="#FFFFFF"></path>
            <path d="M102.102051,366 L78.1030273,366 L78.1030273,330.990234 L102.102051,330.990234 L102.102051,337.99707 L85.1098633,337.99707 L85.1098633,345.003906 L96.6088867,345.003906 L96.6088867,352.010742 L85.1098633,352.010742 L85.1098633,358.993164 L102.102051,358.993164 L102.102051,366 Z M137.76709,330.990234 L126.268066,366 L119.26123,366 L107.811035,330.990234 L115.77002,330.990234 L122.752441,354.354492 L129.759277,330.990234 L137.76709,330.990234 Z M191.055176,362.411133 C189.427572,363.810872 187.604655,364.885091 185.586426,365.633789 C183.568197,366.382487 181.476725,366.756836 179.312012,366.756836 C177.651855,366.756836 176.052734,366.541178 174.514648,366.109863 C172.976562,365.678548 171.536133,365.068197 170.193359,364.278809 C168.850586,363.489421 167.625814,362.541341 166.519043,361.43457 C165.412272,360.327799 164.464193,359.103027 163.674805,357.760254 C162.885417,356.41748 162.275065,354.977051 161.84375,353.438965 C161.412435,351.900879 161.196777,350.301758 161.196777,348.641602 C161.196777,346.981445 161.412435,345.378255 161.84375,343.832031 C162.275065,342.285807 162.885417,340.841309 163.674805,339.498535 C164.464193,338.155762 165.412272,336.93099 166.519043,335.824219 C167.625814,334.717448 168.850586,333.769368 170.193359,332.97998 C171.536133,332.190592 172.976562,331.580241 174.514648,331.148926 C176.052734,330.717611 177.651855,330.501953 179.312012,330.501953 C181.476725,330.501953 183.568197,330.872233 185.586426,331.612793 C187.604655,332.353353 189.427572,333.431641 191.055176,334.847656 L187.344238,340.951172 C186.318848,339.844401 185.106283,338.993978 183.706543,338.399902 C182.306803,337.805827 180.84196,337.508789 179.312012,337.508789 C177.765788,337.508789 176.31722,337.801758 174.966309,338.387695 C173.615397,338.973633 172.435384,339.76709 171.42627,340.768066 C170.417155,341.769043 169.619629,342.949056 169.033691,344.308105 C168.447754,345.667155 168.154785,347.111654 168.154785,348.641602 C168.154785,350.171549 168.447754,351.60791 169.033691,352.950684 C169.619629,354.293457 170.417155,355.469401 171.42627,356.478516 C172.435384,357.48763 173.615397,358.285156 174.966309,358.871094 C176.31722,359.457031 177.765788,359.75 179.312012,359.75 C180.84196,359.75 182.306803,359.452962 183.706543,358.858887 C185.106283,358.264811 186.318848,357.414388 187.344238,356.307617 L191.055176,362.411133 Z M206.114746,366 L199.10791,366 L199.10791,330.990234 L206.114746,330.990234 L206.114746,345.003906 L220.104004,345.003906 L220.104004,330.990234 L227.11084,330.990234 L227.11084,366 L220.104004,366 L220.104004,352.010742 L206.114746,352.010742 L206.114746,366 Z M258.210449,352.010742 L258.210449,345.003906 C258.210449,344.04362 258.027344,343.13623 257.661133,342.281738 C257.294922,341.427246 256.794434,340.682617 256.159668,340.047852 C255.524902,339.413086 254.780273,338.912598 253.925781,338.546387 C253.071289,338.180176 252.1639,337.99707 251.203613,337.99707 C250.243327,337.99707 249.335938,338.180176 248.481445,338.546387 C247.626953,338.912598 246.882324,339.413086 246.247559,340.047852 C245.612793,340.682617 245.112305,341.427246 244.746094,342.281738 C244.379883,343.13623 244.196777,344.04362 244.196777,345.003906 L244.196777,352.010742 L258.210449,352.010742 Z M265.217285,366 L258.210449,366 L258.210449,358.993164 L244.196777,358.993164 L244.196777,366 L237.214355,366 L237.214355,345.003906 C237.214355,343.067057 237.580566,341.24821 238.312988,339.547363 C239.04541,337.846517 240.042318,336.361328 241.303711,335.091797 C242.565104,333.822266 244.046224,332.821289 245.74707,332.088867 C247.447917,331.356445 249.266764,330.990234 251.203613,330.990234 C253.140462,330.990234 254.95931,331.356445 256.660156,332.088867 C258.361003,332.821289 259.846191,333.822266 261.115723,335.091797 C262.385254,336.361328 263.38623,337.846517 264.118652,339.547363 C264.851074,341.24821 265.217285,343.067057 265.217285,345.003906 L265.217285,366 Z M282.303223,337.99707 L282.303223,352.010742 L289.310059,352.010742 C290.270345,352.010742 291.173665,351.827637 292.02002,351.461426 C292.866374,351.095215 293.606934,350.594727 294.241699,349.959961 C294.876465,349.325195 295.376953,348.580566 295.743164,347.726074 C296.109375,346.871582 296.29248,345.964193 296.29248,345.003906 C296.29248,344.04362 296.109375,343.13623 295.743164,342.281738 C295.376953,341.427246 294.876465,340.682617 294.241699,340.047852 C293.606934,339.413086 292.866374,338.912598 292.02002,338.546387 C291.173665,338.180176 290.270345,337.99707 289.310059,337.99707 L282.303223,337.99707 Z M282.303223,366 L275.296387,366 L275.296387,330.990234 L289.310059,330.990234 C290.595866,330.990234 291.832845,331.157064 293.020996,331.490723 C294.209147,331.824382 295.319987,332.296387 296.353516,332.906738 C297.387044,333.51709 298.331055,334.249512 299.185547,335.104004 C300.040039,335.958496 300.772461,336.906576 301.382812,337.948242 C301.993164,338.989909 302.465169,340.104818 302.798828,341.292969 C303.132487,342.48112 303.299316,343.718099 303.299316,345.003906 C303.299316,346.208333 303.148763,347.380208 302.847656,348.519531 C302.546549,349.658854 302.115234,350.741211 301.553711,351.766602 C300.992188,352.791992 300.304525,353.736003 299.490723,354.598633 C298.676921,355.461263 297.765462,356.209961 296.756348,356.844727 L300.638184,366 L293.191895,366 L290.140137,358.944336 L282.303223,358.993164 L282.303223,366 Z M339.745605,362.459961 C338.118001,363.843424 336.303223,364.905436 334.30127,365.645996 C332.299316,366.386556 330.215983,366.756836 328.05127,366.756836 C326.391113,366.756836 324.791992,366.541178 323.253906,366.109863 C321.71582,365.678548 320.27946,365.068197 318.944824,364.278809 C317.610189,363.489421 316.389486,362.54541 315.282715,361.446777 C314.175944,360.348145 313.231934,359.127441 312.450684,357.784668 C311.669434,356.441895 311.063151,354.997396 310.631836,353.451172 C310.200521,351.904948 309.984863,350.301758 309.984863,348.641602 C309.984863,346.981445 310.200521,345.386393 310.631836,343.856445 C311.063151,342.326497 311.669434,340.890137 312.450684,339.547363 C313.231934,338.20459 314.175944,336.983887 315.282715,335.885254 C316.389486,334.786621 317.610189,333.84668 318.944824,333.06543 C320.27946,332.28418 321.71582,331.677897 323.253906,331.246582 C324.791992,330.815267 326.391113,330.599609 328.05127,330.599609 C330.215983,330.599609 332.299316,330.969889 334.30127,331.710449 C336.303223,332.451009 338.118001,333.513021 339.745605,334.896484 L336.083496,341 C335.025553,339.925781 333.80485,339.083496 332.421387,338.473145 C331.037923,337.862793 329.581217,337.557617 328.05127,337.557617 C326.521322,337.557617 325.084961,337.850586 323.742188,338.436523 C322.399414,339.022461 321.22347,339.815918 320.214355,340.816895 C319.205241,341.817871 318.407715,342.989746 317.821777,344.33252 C317.23584,345.675293 316.942871,347.111654 316.942871,348.641602 C316.942871,350.187826 317.23584,351.636393 317.821777,352.987305 C318.407715,354.338216 319.205241,355.518229 320.214355,356.527344 C321.22347,357.536458 322.399414,358.333984 323.742188,358.919922 C325.084961,359.505859 326.521322,359.798828 328.05127,359.798828 C328.930176,359.798828 329.784668,359.693034 330.614746,359.481445 C331.444824,359.269857 332.234212,358.976888 332.98291,358.602539 L332.98291,348.641602 L339.745605,348.641602 L339.745605,362.459961 Z M356.147949,366 L349.141113,366 L349.141113,330.990234 L356.147949,330.990234 L356.147949,366 Z M394.64502,366 L387.149902,366 L373.648926,342.953125 L373.648926,366 L366.64209,366 L366.64209,330.990234 L374.137207,330.990234 L387.638184,354.061523 L387.638184,330.990234 L394.64502,330.990234 L394.64502,366 Z M432.995605,362.459961 C431.368001,363.843424 429.553223,364.905436 427.55127,365.645996 C425.549316,366.386556 423.465983,366.756836 421.30127,366.756836 C419.641113,366.756836 418.041992,366.541178 416.503906,366.109863 C414.96582,365.678548 413.52946,365.068197 412.194824,364.278809 C410.860189,363.489421 409.639486,362.54541 408.532715,361.446777 C407.425944,360.348145 406.481934,359.127441 405.700684,357.784668 C404.919434,356.441895 404.313151,354.997396 403.881836,353.451172 C403.450521,351.904948 403.234863,350.301758 403.234863,348.641602 C403.234863,346.981445 403.450521,345.386393 403.881836,343.856445 C404.313151,342.326497 404.919434,340.890137 405.700684,339.547363 C406.481934,338.20459 407.425944,336.983887 408.532715,335.885254 C409.639486,334.786621 410.860189,333.84668 412.194824,333.06543 C413.52946,332.28418 414.96582,331.677897 416.503906,331.246582 C418.041992,330.815267 419.641113,330.599609 421.30127,330.599609 C423.465983,330.599609 425.549316,330.969889 427.55127,331.710449 C429.553223,332.451009 431.368001,333.513021 432.995605,334.896484 L429.333496,341 C428.275553,339.925781 427.05485,339.083496 425.671387,338.473145 C424.287923,337.862793 422.831217,337.557617 421.30127,337.557617 C419.771322,337.557617 418.334961,337.850586 416.992188,338.436523 C415.649414,339.022461 414.47347,339.815918 413.464355,340.816895 C412.455241,341.817871 411.657715,342.989746 411.071777,344.33252 C410.48584,345.675293 410.192871,347.111654 410.192871,348.641602 C410.192871,350.187826 410.48584,351.636393 411.071777,352.987305 C411.657715,354.338216 412.455241,355.518229 413.464355,356.527344 C414.47347,357.536458 415.649414,358.333984 416.992188,358.919922 C418.334961,359.505859 419.771322,359.798828 421.30127,359.798828 C422.180176,359.798828 423.034668,359.693034 423.864746,359.481445 C424.694824,359.269857 425.484212,358.976888 426.23291,358.602539 L426.23291,348.641602 L432.995605,348.641602 L432.995605,362.459961 Z" id="Combined-Shape" fill="#04D2DF" fill-rule="nonzero"></path>
            <path d="M430.131575,209 L453,209 L453,189.06264 L432.418417,177 L396,177 L396,196.758389 L430.131575,196.758389 L430.131575,209 Z M453,246 L429.846314,246 L429.846314,258.243913 L396,258.243913 L396,279 L432.161682,279 L453,266.937681 L453,246 Z M332,266.939925 L332,189.237095 L352.584459,177 L389,177 L389,197.044144 L354.871121,197.044144 L354.871121,258.247775 L389,258.247775 L389,279 L352.584459,279 L332,266.939925 Z M247,260.776573 L247,279 L215.812759,279 L196,268.638197 L196,240.057537 L222.703579,229.160961 L211.853734,221.838681 L211.853734,186.648772 L237.009855,177 L247,177 L247,200.758559 L231.838434,200.758559 L231.838434,209.333214 L247,221.838681 L247,245.953755 L241.661048,242.201201 L217.364627,252.384746 L217.364627,260.776573 L247,260.776573 Z M315,240.057537 L300.871328,258.459222 L315,268.816455 L294.940498,279 L288.840089,274.89093 L284.997769,279 L255,279 L255,260.776573 L268.253998,260.776573 L255,251.667145 L255,215.764205 L271.043139,209.333214 L271.043139,200.758559 L255,200.758559 L255,177 L264.94273,177 L291.107103,186.648772 L291.107103,221.838681 L264.242097,232.735257 L284.997769,248.275677 L294.940498,233.983061 L315,240.057537 Z M179,226.887206 L179,226.887206 L179,189.290588 L158.415541,177 L122,177 L122,197.131765 L156.128879,197.131765 L156.128879,218.157059 L122,218.157059 L122,239 L158.415541,239 L179,226.887206 Z M58,177 L58,177 L115,177 L115,197.044144 L80.8711206,197.044144 L80.8711206,217.977928 L115,217.977928 L115,238.730153 L80.8711206,238.730153 L80.8711206,279 L58,279 L58,177 Z" id="P&amp;C" fill="#04D2DF"></path>
        </g>
    </g>
</svg>