<?xml version="1.0" encoding="UTF-8"?>
<svg width="1519px" height="512px" viewBox="0 0 1519 512" version="1.1" xmlns="http://www.w3.org/2000/svg" xmlns:xlink="http://www.w3.org/1999/xlink">
    <title>pac-logo-evcharging-long</title>
    <g id="Logos" stroke="none" stroke-width="1" fill="none" fill-rule="evenodd">
        <g id="pac-logo-evcharging-long">
            <path d="M512,256 C511.829604,291.529248 505.100948,324.704673 491.790256,355.518351 C478.653922,386.510348 460.401749,413.674411 437.0377,437.03828 C413.677613,460.402149 386.509377,478.65418 355.521102,491.790412 C324.703224,505.097039 291.527542,511.829605 255.998019,512 C220.468496,511.829605 187.292814,505.097039 156.478898,491.790412 C125.490623,478.65418 98.3223869,460.402149 74.9583375,437.03828 C51.5942881,413.674411 33.3421152,386.510348 20.2097442,355.518351 C6.89905189,324.704673 0.170395883,291.529248 0,256 C0.170395883,220.466789 6.89905189,187.295327 20.2097442,156.477687 C33.3421152,125.489652 51.5942881,98.3255886 74.9583375,74.9577574 C98.3223869,51.5938888 125.490623,33.3458199 156.478898,20.2095878 C187.292814,6.90296116 220.468496,0.170394564 255.998019,0 C291.527542,0.170394564 324.703224,6.90296116 355.521102,20.2095878 C386.509377,33.3458199 413.677613,51.5938888 437.0377,74.9577574 C460.401749,98.3255886 478.653922,125.489652 491.790256,156.477687 C505.100948,187.295327 511.829604,220.466789 512,256" id="Fill-1" fill="#04D2DF"></path>
            <path d="M102.102051,366 L78.1030273,366 L78.1030273,330.990234 L102.102051,330.990234 L102.102051,337.99707 L85.1098633,337.99707 L85.1098633,345.003906 L96.6088867,345.003906 L96.6088867,352.010742 L85.1098633,352.010742 L85.1098633,358.993164 L102.102051,358.993164 L102.102051,366 Z M137.76709,330.990234 L126.268066,366 L119.26123,366 L107.811035,330.990234 L115.77002,330.990234 L122.752441,354.354492 L129.759277,330.990234 L137.76709,330.990234 Z M191.055176,362.411133 C189.427572,363.810872 187.604655,364.885091 185.586426,365.633789 C183.568197,366.382487 181.476725,366.756836 179.312012,366.756836 C177.651855,366.756836 176.052734,366.541178 174.514648,366.109863 C172.976562,365.678548 171.536133,365.068197 170.193359,364.278809 C168.850586,363.489421 167.625814,362.541341 166.519043,361.43457 C165.412272,360.327799 164.464193,359.103027 163.674805,357.760254 C162.885417,356.41748 162.275065,354.977051 161.84375,353.438965 C161.412435,351.900879 161.196777,350.301758 161.196777,348.641602 C161.196777,346.981445 161.412435,345.378255 161.84375,343.832031 C162.275065,342.285807 162.885417,340.841309 163.674805,339.498535 C164.464193,338.155762 165.412272,336.93099 166.519043,335.824219 C167.625814,334.717448 168.850586,333.769368 170.193359,332.97998 C171.536133,332.190592 172.976562,331.580241 174.514648,331.148926 C176.052734,330.717611 177.651855,330.501953 179.312012,330.501953 C181.476725,330.501953 183.568197,330.872233 185.586426,331.612793 C187.604655,332.353353 189.427572,333.431641 191.055176,334.847656 L187.344238,340.951172 C186.318848,339.844401 185.106283,338.993978 183.706543,338.399902 C182.306803,337.805827 180.84196,337.508789 179.312012,337.508789 C177.765788,337.508789 176.31722,337.801758 174.966309,338.387695 C173.615397,338.973633 172.435384,339.76709 171.42627,340.768066 C170.417155,341.769043 169.619629,342.949056 169.033691,344.308105 C168.447754,345.667155 168.154785,347.111654 168.154785,348.641602 C168.154785,350.171549 168.447754,351.60791 169.033691,352.950684 C169.619629,354.293457 170.417155,355.469401 171.42627,356.478516 C172.435384,357.48763 173.615397,358.285156 174.966309,358.871094 C176.31722,359.457031 177.765788,359.75 179.312012,359.75 C180.84196,359.75 182.306803,359.452962 183.706543,358.858887 C185.106283,358.264811 186.318848,357.414388 187.344238,356.307617 L191.055176,362.411133 Z M206.114746,366 L199.10791,366 L199.10791,330.990234 L206.114746,330.990234 L206.114746,345.003906 L220.104004,345.003906 L220.104004,330.990234 L227.11084,330.990234 L227.11084,366 L220.104004,366 L220.104004,352.010742 L206.114746,352.010742 L206.114746,366 Z M258.210449,352.010742 L258.210449,345.003906 C258.210449,344.04362 258.027344,343.13623 257.661133,342.281738 C257.294922,341.427246 256.794434,340.682617 256.159668,340.047852 C255.524902,339.413086 254.780273,338.912598 253.925781,338.546387 C253.071289,338.180176 252.1639,337.99707 251.203613,337.99707 C250.243327,337.99707 249.335938,338.180176 248.481445,338.546387 C247.626953,338.912598 246.882324,339.413086 246.247559,340.047852 C245.612793,340.682617 245.112305,341.427246 244.746094,342.281738 C244.379883,343.13623 244.196777,344.04362 244.196777,345.003906 L244.196777,352.010742 L258.210449,352.010742 Z M265.217285,366 L258.210449,366 L258.210449,358.993164 L244.196777,358.993164 L244.196777,366 L237.214355,366 L237.214355,345.003906 C237.214355,343.067057 237.580566,341.24821 238.312988,339.547363 C239.04541,337.846517 240.042318,336.361328 241.303711,335.091797 C242.565104,333.822266 244.046224,332.821289 245.74707,332.088867 C247.447917,331.356445 249.266764,330.990234 251.203613,330.990234 C253.140462,330.990234 254.95931,331.356445 256.660156,332.088867 C258.361003,332.821289 259.846191,333.822266 261.115723,335.091797 C262.385254,336.361328 263.38623,337.846517 264.118652,339.547363 C264.851074,341.24821 265.217285,343.067057 265.217285,345.003906 L265.217285,366 Z M282.303223,337.99707 L282.303223,352.010742 L289.310059,352.010742 C290.270345,352.010742 291.173665,351.827637 292.02002,351.461426 C292.866374,351.095215 293.606934,350.594727 294.241699,349.959961 C294.876465,349.325195 295.376953,348.580566 295.743164,347.726074 C296.109375,346.871582 296.29248,345.964193 296.29248,345.003906 C296.29248,344.04362 296.109375,343.13623 295.743164,342.281738 C295.376953,341.427246 294.876465,340.682617 294.241699,340.047852 C293.606934,339.413086 292.866374,338.912598 292.02002,338.546387 C291.173665,338.180176 290.270345,337.99707 289.310059,337.99707 L282.303223,337.99707 Z M282.303223,366 L275.296387,366 L275.296387,330.990234 L289.310059,330.990234 C290.595866,330.990234 291.832845,331.157064 293.020996,331.490723 C294.209147,331.824382 295.319987,332.296387 296.353516,332.906738 C297.387044,333.51709 298.331055,334.249512 299.185547,335.104004 C300.040039,335.958496 300.772461,336.906576 301.382812,337.948242 C301.993164,338.989909 302.465169,340.104818 302.798828,341.292969 C303.132487,342.48112 303.299316,343.718099 303.299316,345.003906 C303.299316,346.208333 303.148763,347.380208 302.847656,348.519531 C302.546549,349.658854 302.115234,350.741211 301.553711,351.766602 C300.992188,352.791992 300.304525,353.736003 299.490723,354.598633 C298.676921,355.461263 297.765462,356.209961 296.756348,356.844727 L300.638184,366 L293.191895,366 L290.140137,358.944336 L282.303223,358.993164 L282.303223,366 Z M339.745605,362.459961 C338.118001,363.843424 336.303223,364.905436 334.30127,365.645996 C332.299316,366.386556 330.215983,366.756836 328.05127,366.756836 C326.391113,366.756836 324.791992,366.541178 323.253906,366.109863 C321.71582,365.678548 320.27946,365.068197 318.944824,364.278809 C317.610189,363.489421 316.389486,362.54541 315.282715,361.446777 C314.175944,360.348145 313.231934,359.127441 312.450684,357.784668 C311.669434,356.441895 311.063151,354.997396 310.631836,353.451172 C310.200521,351.904948 309.984863,350.301758 309.984863,348.641602 C309.984863,346.981445 310.200521,345.386393 310.631836,343.856445 C311.063151,342.326497 311.669434,340.890137 312.450684,339.547363 C313.231934,338.20459 314.175944,336.983887 315.282715,335.885254 C316.389486,334.786621 317.610189,333.84668 318.944824,333.06543 C320.27946,332.28418 321.71582,331.677897 323.253906,331.246582 C324.791992,330.815267 326.391113,330.599609 328.05127,330.599609 C330.215983,330.599609 332.299316,330.969889 334.30127,331.710449 C336.303223,332.451009 338.118001,333.513021 339.745605,334.896484 L336.083496,341 C335.025553,339.925781 333.80485,339.083496 332.421387,338.473145 C331.037923,337.862793 329.581217,337.557617 328.05127,337.557617 C326.521322,337.557617 325.084961,337.850586 323.742188,338.436523 C322.399414,339.022461 321.22347,339.815918 320.214355,340.816895 C319.205241,341.817871 318.407715,342.989746 317.821777,344.33252 C317.23584,345.675293 316.942871,347.111654 316.942871,348.641602 C316.942871,350.187826 317.23584,351.636393 317.821777,352.987305 C318.407715,354.338216 319.205241,355.518229 320.214355,356.527344 C321.22347,357.536458 322.399414,358.333984 323.742188,358.919922 C325.084961,359.505859 326.521322,359.798828 328.05127,359.798828 C328.930176,359.798828 329.784668,359.693034 330.614746,359.481445 C331.444824,359.269857 332.234212,358.976888 332.98291,358.602539 L332.98291,348.641602 L339.745605,348.641602 L339.745605,362.459961 Z M356.147949,366 L349.141113,366 L349.141113,330.990234 L356.147949,330.990234 L356.147949,366 Z M394.64502,366 L387.149902,366 L373.648926,342.953125 L373.648926,366 L366.64209,366 L366.64209,330.990234 L374.137207,330.990234 L387.638184,354.061523 L387.638184,330.990234 L394.64502,330.990234 L394.64502,366 Z M432.995605,362.459961 C431.368001,363.843424 429.553223,364.905436 427.55127,365.645996 C425.549316,366.386556 423.465983,366.756836 421.30127,366.756836 C419.641113,366.756836 418.041992,366.541178 416.503906,366.109863 C414.96582,365.678548 413.52946,365.068197 412.194824,364.278809 C410.860189,363.489421 409.639486,362.54541 408.532715,361.446777 C407.425944,360.348145 406.481934,359.127441 405.700684,357.784668 C404.919434,356.441895 404.313151,354.997396 403.881836,353.451172 C403.450521,351.904948 403.234863,350.301758 403.234863,348.641602 C403.234863,346.981445 403.450521,345.386393 403.881836,343.856445 C404.313151,342.326497 404.919434,340.890137 405.700684,339.547363 C406.481934,338.20459 407.425944,336.983887 408.532715,335.885254 C409.639486,334.786621 410.860189,333.84668 412.194824,333.06543 C413.52946,332.28418 414.96582,331.677897 416.503906,331.246582 C418.041992,330.815267 419.641113,330.599609 421.30127,330.599609 C423.465983,330.599609 425.549316,330.969889 427.55127,331.710449 C429.553223,332.451009 431.368001,333.513021 432.995605,334.896484 L429.333496,341 C428.275553,339.925781 427.05485,339.083496 425.671387,338.473145 C424.287923,337.862793 422.831217,337.557617 421.30127,337.557617 C419.771322,337.557617 418.334961,337.850586 416.992188,338.436523 C415.649414,339.022461 414.47347,339.815918 413.464355,340.816895 C412.455241,341.817871 411.657715,342.989746 411.071777,344.33252 C410.48584,345.675293 410.192871,347.111654 410.192871,348.641602 C410.192871,350.187826 410.48584,351.636393 411.071777,352.987305 C411.657715,354.338216 412.455241,355.518229 413.464355,356.527344 C414.47347,357.536458 415.649414,358.333984 416.992188,358.919922 C418.334961,359.505859 419.771322,359.798828 421.30127,359.798828 C422.180176,359.798828 423.034668,359.693034 423.864746,359.481445 C424.694824,359.269857 425.484212,358.976888 426.23291,358.602539 L426.23291,348.641602 L432.995605,348.641602 L432.995605,362.459961 Z" id="Combined-Shape" fill="#FFFFFF" fill-rule="nonzero"></path>
            <path d="M430.131575,209 L453,209 L453,189.06264 L432.418417,177 L396,177 L396,196.758389 L430.131575,196.758389 L430.131575,209 Z M453,246 L429.846314,246 L429.846314,258.243913 L396,258.243913 L396,279 L432.161682,279 L453,266.937681 L453,246 Z M332,266.939925 L332,189.237095 L352.584459,177 L389,177 L389,197.044144 L354.871121,197.044144 L354.871121,258.247775 L389,258.247775 L389,279 L352.584459,279 L332,266.939925 Z M247,260.776573 L247,279 L215.812759,279 L196,268.638197 L196,240.057537 L222.703579,229.160961 L211.853734,221.838681 L211.853734,186.648772 L237.009855,177 L247,177 L247,200.758559 L231.838434,200.758559 L231.838434,209.333214 L247,221.838681 L247,245.953755 L241.661048,242.201201 L217.364627,252.384746 L217.364627,260.776573 L247,260.776573 Z M315,240.057537 L300.871328,258.459222 L315,268.816455 L294.940498,279 L288.840089,274.89093 L284.997769,279 L255,279 L255,260.776573 L268.253998,260.776573 L255,251.667145 L255,215.764205 L271.043139,209.333214 L271.043139,200.758559 L255,200.758559 L255,177 L264.94273,177 L291.107103,186.648772 L291.107103,221.838681 L264.242097,232.735257 L284.997769,248.275677 L294.940498,233.983061 L315,240.057537 Z M179,226.887206 L179,226.887206 L179,189.290588 L158.415541,177 L122,177 L122,197.131765 L156.128879,197.131765 L156.128879,218.157059 L122,218.157059 L122,239 L158.415541,239 L179,226.887206 Z M58,177 L58,177 L115,177 L115,197.044144 L80.8711206,197.044144 L80.8711206,217.977928 L115,217.977928 L115,238.730153 L80.8711206,238.730153 L80.8711206,279 L58,279 L58,177 Z" id="P&amp;C" fill="#FFFFFF"></path>
            <path d="M643.674666,341.719175 C643.674666,343.407067 644.4025,345.654961 645.85419,348.458913 C647.30588,351.262865 649.210975,354.125972 651.56152,357.056121 L654.643876,360.853879 C657.944979,358.673027 660.824496,356.338373 663.278449,353.853858 C666.929549,350.032439 668.755099,346.388484 668.755099,342.914108 C668.755099,339.140012 667.605679,336.095496 665.302861,333.788447 C662.996065,331.481398 659.969391,330.325902 656.214883,330.325902 C652.460375,330.325902 649.429723,331.370976 647.130882,333.453235 C644.828064,335.543382 643.674666,338.296066 643.674666,341.719175 M651.183683,418.561654 C655.089326,418.561654 659.146104,417.556017 663.350039,415.548687 C667.553975,413.537414 671.161325,410.918814 674.164136,407.692889 L674.911856,406.872605 L666.95739,397.26976 L649.469495,376.139557 C644.458181,379.113087 640.429244,382.220702 637.370752,385.43874 C632.963977,390.155373 630.756613,395.041585 630.756613,400.105262 C630.756613,405.61063 632.637844,410.078812 636.388375,413.501921 C640.146861,416.877705 645.074653,418.561654 651.183683,418.561654 M630.307186,343.880308 C630.307186,336.434652 632.785002,330.416607 637.740634,325.822227 C642.696267,321.231791 649.206998,318.936573 657.264872,318.936573 C664.674458,318.936573 670.672125,321.097706 675.249921,325.412085 C679.831693,329.734351 682.12258,335.421128 682.12258,342.472417 C682.12258,347.488769 679.76408,352.725968 675.051059,358.191899 C671.439731,362.41163 666.901708,366.15812 661.43699,369.439256 L680.547595,392.647775 L682.126557,394.580175 L682.504394,393.834821 C684.803235,388.179593 686.227084,382.496759 686.77992,376.790264 L698.795141,376.790264 C698.142875,384.030848 696.373006,391.224109 693.473603,398.362158 C692.574749,400.645545 691.600326,402.75541 690.550337,404.68781 L709.831963,428.018583 L692.877018,428.018583 L682.822573,416.132351 C678.216937,420.841097 673.193691,424.410122 667.760791,426.839424 C662.32789,429.26084 656.377949,430.475491 649.918923,430.475491 C640.202542,430.475491 632.351484,427.821399 626.369725,422.509271 C620.383989,417.197143 617.393109,410.224728 617.393109,401.588083 C617.393109,393.495665 619.743654,386.570574 624.452698,380.808867 C628.155502,376.297304 634.03783,371.726587 642.099682,367.108545 L641.347985,366.288261 C638.042904,362.324869 635.378158,358.274716 633.349769,354.153578 C631.32138,350.036382 630.307186,346.60933 630.307186,343.880308 M860.695975,387.733958 C858.790881,401.24104 853.572751,411.825859 845.037608,419.492361 C836.502466,427.162806 825.704278,431 812.639067,431 C797.418195,431 785.291611,425.798295 776.255337,415.402771 C767.215086,404.99936 762.696949,390.987488 762.696949,373.363211 C762.696949,355.746822 767.394062,341.707344 776.776355,331.260553 C786.166602,320.805874 798.770454,315.58445 814.587911,315.58445 C827.056537,315.58445 837.289958,318.763051 845.300106,325.112366 C853.310253,331.469567 858.118728,340.23241 859.721553,351.400893 L845.300106,351.400893 C843.900119,344.152421 840.50754,338.552405 835.126343,334.608732 C829.745147,330.661114 822.824761,328.689278 814.365186,328.689278 C803.300523,328.689278 794.490951,332.723656 787.932494,340.788468 C781.374036,348.861168 778.092819,359.718101 778.092819,373.363211 C778.092819,387.860155 781.135402,398.906385 787.216592,406.5019 C793.301759,414.097415 802.123262,417.891229 813.689056,417.891229 C822.248062,417.891229 829.359355,415.276574 835.014981,410.039375 C840.670606,404.802177 844.425114,397.368352 846.278505,387.733958 L860.695975,387.733958 Z M954.638621,405.607475 C961.69821,397.416465 965.226016,386.669955 965.226016,373.364 C965.226016,360.010721 961.69821,349.228718 954.638621,341.010102 C947.579032,332.799374 938.292193,328.690066 926.778103,328.690066 C915.311739,328.690066 906.05274,332.799374 898.993151,341.010102 C891.933563,349.228718 888.405757,360.010721 888.405757,373.364 C888.405757,386.669955 891.933563,397.416465 898.993151,405.607475 C906.05274,413.798485 915.311739,417.892018 926.778103,417.892018 C938.292193,417.892018 947.579032,413.798485 954.638621,405.607475 M887.880762,415.099897 C877.969497,404.503246 873.009887,390.589966 873.009887,373.364 C873.009887,356.09071 877.969497,342.141937 887.880762,331.521624 C897.792027,320.901311 910.757807,315.585239 926.778103,315.585239 C942.897829,315.585239 955.903381,320.901311 965.790783,331.521624 C975.678185,342.141937 980.621886,356.09071 980.621886,373.364 C980.621886,390.589966 975.678185,404.503246 965.790783,415.099897 C955.903381,425.700492 942.897829,430.996845 926.778103,430.996845 C910.757807,430.996845 897.792027,425.700492 887.880762,415.099897 M1012.7631,428.017794 L1005.55238,428.017794 L998.34563,428.017794 L998.34563,318.565079 L1007.28247,318.565079 L1016.29091,318.565079 L1071.56252,407.514635 L1071.56252,318.565079 L1078.76926,318.565079 L1085.97999,318.565079 L1085.97999,428.017794 L1077.79086,428.017794 L1069.60572,428.017794 L1012.7631,338.721194 L1012.7631,428.017794 Z M1137.19323,331.66754 L1099.86689,331.66754 L1099.86689,325.113154 L1099.86689,318.566656 L1189.45805,318.566656 L1189.45805,325.113154 L1189.45805,331.66754 L1152.13569,331.66754 L1152.13569,428.019372 L1144.70224,428.019372 L1137.19323,428.019372 L1137.19323,331.66754 Z M1220.09388,368.004153 L1257.04238,368.004153 C1263.95083,368.004153 1269.00987,366.505557 1272.21154,363.500478 C1275.41322,360.499343 1277.02002,355.747216 1277.02002,349.240155 C1277.02002,342.938164 1275.32969,338.324066 1271.94905,335.389973 C1268.5684,332.459824 1263.22697,330.996721 1255.91682,330.996721 L1220.09388,330.996721 L1220.09388,368.004153 Z M1205.15142,318.566262 L1212.58486,318.566262 L1256.51738,318.566262 C1268.23431,318.566262 1277.14331,321.086269 1283.24837,326.12234 C1289.3574,331.158412 1292.41589,338.544912 1292.41589,348.273955 C1292.41589,357.857081 1289.23012,365.350061 1282.87451,370.756837 C1281.27566,372.097686 1279.54158,373.29262 1277.69217,374.329806 L1280.16999,375.524739 C1286.87958,379.346158 1290.35568,385.77829 1290.61022,394.813246 L1291.21079,414.76429 C1291.31022,418.041483 1291.73976,420.3998 1292.4835,421.839241 C1293.23918,423.282625 1294.69087,424.520939 1296.84255,425.562069 L1296.84255,427.944047 L1278.47171,427.944047 C1278.06603,427.052777 1277.67229,424.722066 1277.26661,420.947971 C1276.86888,417.173875 1276.56661,412.977806 1276.36775,408.359765 L1276.02969,399.727063 C1275.8348,392.924226 1274.15641,388.073508 1271.00644,385.170964 C1267.8525,382.264477 1262.69403,380.809261 1255.53898,380.809261 L1220.09388,380.809261 L1220.09388,428.018977 L1212.66043,428.018977 L1205.15142,428.018977 L1205.15142,318.566262 Z M1390.33815,405.607475 C1397.39377,397.416465 1400.92555,386.669955 1400.92555,373.364 C1400.92555,360.010721 1397.39377,349.228718 1390.33815,341.010102 C1383.27857,332.799374 1373.99173,328.690066 1362.47366,328.690066 C1351.0073,328.690066 1341.7483,332.799374 1334.69268,341.010102 C1327.6331,349.228718 1324.10131,360.010721 1324.10131,373.364 C1324.10131,386.669955 1327.6331,397.416465 1334.69268,405.607475 C1341.7483,413.798485 1351.0073,417.892018 1362.47366,417.892018 C1373.99173,417.892018 1383.27857,413.798485 1390.33815,405.607475 M1323.58029,415.099897 C1313.66903,404.503246 1308.70942,390.589966 1308.70942,373.364 C1308.70942,356.09071 1313.66903,342.141937 1323.58029,331.521624 C1333.49156,320.901311 1346.45734,315.585239 1362.47366,315.585239 C1378.59338,315.585239 1391.59894,320.901311 1401.48634,331.521624 C1411.37374,342.141937 1416.31744,356.09071 1416.31744,373.364 C1416.31744,390.589966 1411.37374,404.503246 1401.48634,415.099897 C1391.59894,425.700492 1378.59338,430.996845 1362.47366,430.996845 C1346.45734,430.996845 1333.49156,425.700492 1323.58029,415.099897 M1434.04079,428.017794 L1434.04079,318.565079 L1441.47424,318.565079 L1448.98325,318.565079 L1448.98325,414.916911 L1504.92702,414.916911 L1504.92702,421.467352 L1504.92702,428.017794 L1434.04079,428.017794 Z M631.414219,121.5247 L631.414219,197.797394 L669.828438,197.797394 C675.096538,197.797394 680.046803,196.799617 684.687181,194.804065 C689.327558,192.812456 693.387888,190.087305 696.868171,186.636498 C700.348454,183.177803 703.093746,179.123598 705.100073,174.477826 C707.110374,169.824166 708.111551,164.886554 708.111551,159.661047 C708.111551,154.435539 707.110374,149.497927 705.100073,144.844267 C703.093746,140.194551 700.348454,136.14429 696.868171,132.685595 C693.387888,129.234788 689.327558,126.509637 684.687181,124.518028 C680.046803,122.522476 675.096538,121.5247 669.828438,121.5247 L631.414219,121.5247 Z M631.414219,273.932055 L593,273.932055 L593,83.3922966 L669.828438,83.3922966 C676.876409,83.3922966 683.662166,84.3033096 690.177764,86.1135044 C696.689389,87.9315867 702.779884,90.5029309 708.44925,93.8235931 C714.110669,97.1442554 719.287391,101.131416 723.975443,105.781132 C728.659523,110.430848 732.672178,115.593255 736.021354,121.26441 C739.366558,126.931621 741.952932,132.997154 743.784451,139.464952 C745.611997,145.928807 746.529743,152.664782 746.529743,159.661047 C746.529743,170.112062 744.519442,179.967567 740.502815,189.223617 C736.49016,198.483611 730.999576,206.560471 724.03901,213.469973 C717.078444,220.379474 708.937919,225.829778 699.613463,229.816939 C690.285033,233.8041 680.356692,235.795708 669.828438,235.795708 L631.414219,235.795708 L631.414219,273.932055 Z M918.931678,179.456453 C918.931678,171.135078 917.326616,163.271182 914.112519,155.876596 C910.902395,148.48201 906.548068,142.057593 901.061458,136.60729 C895.574847,131.16093 889.102951,126.838548 881.653715,123.651974 C874.200507,120.461457 866.282466,118.86817 857.895619,118.86817 C849.413423,118.86817 841.475517,120.461457 834.069984,123.651974 C826.660477,126.838548 820.192554,131.16093 814.658268,136.60729 C809.123983,142.057593 804.753764,148.48201 801.54364,155.876596 C798.329543,163.271182 796.724481,171.135078 796.724481,179.456453 C796.724481,187.785715 798.329543,195.602286 801.54364,202.910109 C804.753764,210.217932 809.123983,216.618686 814.658268,222.108427 C820.192554,227.602112 826.660477,231.944213 834.069984,235.130787 C841.475517,238.321305 849.413423,239.914591 857.895619,239.914591 C866.282466,239.914591 874.200507,238.321305 881.653715,235.130787 C889.102951,231.944213 895.574847,227.602112 901.061458,222.108427 C906.548068,216.618686 910.902395,210.217932 914.112519,202.910109 C917.326616,195.602286 918.931678,187.785715 918.931678,179.456453 M957.079711,179.456453 C957.079711,188.491652 955.895779,197.195573 953.531888,205.568217 C951.167997,213.936916 947.842658,221.77715 943.559844,229.084973 C939.27703,236.39674 934.100308,243.061727 928.033651,249.079935 C921.96302,255.109973 915.272613,260.264493 907.954484,264.563213 C900.640328,268.861932 892.742151,272.182595 884.263928,274.5252 C875.785704,276.871748 866.997592,278.050938 857.895619,278.050938 C848.793646,278.050938 840.025399,276.871748 831.590878,274.5252 C823.160329,272.182595 815.262153,268.861932 807.900322,264.563213 C800.53849,260.264493 793.824246,255.109973 787.753615,249.079935 C781.686957,243.061727 776.486398,236.39674 772.159882,229.084973 C767.833365,221.77715 764.484189,213.936916 762.124271,205.568217 C759.756407,197.195573 758.576448,188.491652 758.576448,179.456453 C758.576448,170.421254 759.756407,161.697614 762.124271,153.281589 C764.484189,144.865564 767.833365,137.029274 772.159882,129.764832 C776.486398,122.504335 781.686957,115.859066 787.753615,109.832971 C793.824246,103.81082 800.53849,98.6720755 807.900322,94.4206813 C815.262153,90.1653434 823.160329,86.8683438 831.590878,84.521795 C840.025399,82.1752463 848.793646,81 857.895619,81 C866.997592,81 875.785704,82.1752463 884.263928,84.521795 C892.742151,86.8683438 900.640328,90.1653434 907.954484,94.4206813 C915.272613,98.6720755 921.96302,103.81082 928.033651,109.832971 C934.100308,115.859066 939.27703,122.504335 943.559844,129.764832 C947.842658,137.029274 951.167997,144.865564 953.531888,153.281589 C955.895779,161.697614 957.079711,170.421254 957.079711,179.456453 M1172.7178,219.452686 C1172.7178,227.336301 1171.22001,234.75455 1168.23237,241.711377 C1165.24473,248.66426 1161.1407,254.729793 1155.9163,259.911919 C1150.69985,265.094045 1144.58552,269.16797 1137.58125,272.133692 C1130.57698,275.103358 1123.10391,276.586219 1115.16203,276.586219 C1108.01871,276.586219 1101.17336,275.347872 1094.61406,272.867235 C1088.05476,270.386597 1082.14304,266.754377 1076.87892,261.970572 C1071.61082,266.754377 1065.68321,270.386597 1059.07624,272.867235 C1052.46926,275.347872 1045.60007,276.586219 1038.4647,276.586219 C1030.51885,276.586219 1023.04577,275.103358 1016.0415,272.133692 C1009.03724,269.16797 1002.92688,265.094045 997.702479,259.911919 C992.486028,254.729793 988.378023,248.66426 985.390382,241.711377 C982.398769,234.75455 980.904949,227.336301 980.904949,219.452686 L980.904949,83.3922966 L1019.32314,83.3922966 L1019.32314,219.452686 C1019.32314,222.110794 1019.81181,224.615094 1020.79312,226.957699 C1021.77444,229.308191 1023.13715,231.347125 1024.87729,233.070557 C1026.61743,234.801876 1028.64363,236.150648 1030.96779,237.124762 C1033.28798,238.102819 1035.78695,238.587904 1038.4647,238.587904 C1041.13848,238.587904 1043.63745,238.102819 1045.95764,237.124762 C1048.27782,236.150648 1050.30799,234.801876 1052.04813,233.070557 C1053.78827,231.347125 1055.14701,229.308191 1056.1323,226.957699 C1057.11361,224.615094 1057.60228,222.110794 1057.60228,219.452686 L1057.60228,83.3922966 L1096.02047,83.3922966 L1096.02047,219.452686 C1096.02047,222.110794 1096.50914,224.615094 1097.49046,226.957699 C1098.47574,229.308191 1099.83448,231.347125 1101.57462,233.070557 C1103.31476,234.801876 1105.34096,236.150648 1107.66512,237.124762 C1109.98531,238.102819 1112.48428,238.587904 1115.16203,238.587904 C1117.83978,238.587904 1120.33081,238.102819 1122.65497,237.124762 C1124.97516,236.150648 1127.00532,234.801876 1128.74944,233.070557 C1130.4856,231.347125 1131.87216,229.308191 1132.89717,226.957699 C1133.91821,224.615094 1134.43469,222.110794 1134.43469,219.452686 L1134.43469,83.3922966 L1172.7178,83.3922966 L1172.7178,219.452686 Z M1338.56401,273.930083 L1206.98469,273.930083 L1206.98469,83.3942685 L1338.56401,83.3942685 L1338.56401,121.522728 L1245.40288,121.522728 L1245.40288,159.659075 L1308.44526,159.659075 L1308.44526,197.795422 L1245.40288,197.795422 L1245.40288,235.793736 L1338.56401,235.793736 L1338.56401,273.930083 Z M1403.88448,121.5247 L1403.88448,197.797394 L1442.2987,197.797394 C1447.56282,197.797394 1452.51309,196.799617 1457.15346,194.804065 C1461.79384,192.812456 1465.85815,190.087305 1469.33843,186.636498 C1472.81871,183.177803 1475.56003,179.123598 1477.57033,174.477826 C1479.58063,169.824166 1480.58181,164.886554 1480.58181,159.661047 C1480.58181,154.435539 1479.58063,149.497927 1477.57033,144.844267 C1475.56003,140.194551 1472.81871,136.14429 1469.33843,132.685595 C1465.85815,129.234788 1461.79384,126.509637 1457.15346,124.518028 C1452.51309,122.522476 1447.56282,121.5247 1442.2987,121.5247 L1403.88448,121.5247 Z M1403.88448,273.932055 L1365.46628,273.932055 L1365.46628,83.3922966 L1442.2987,83.3922966 C1449.34667,83.3922966 1456.12845,84.3033096 1462.64405,86.1135044 C1469.15965,87.9315867 1475.25014,90.5029309 1480.91553,93.8235931 C1486.57695,97.1442554 1491.75368,101.131416 1496.44173,105.781132 C1501.12978,110.430848 1505.13846,115.593255 1508.49161,121.26441 C1511.83681,126.931621 1514.41922,132.997154 1516.25074,139.464952 C1518.08225,145.928807 1519,152.664782 1519,159.661047 C1519,166.215608 1518.16966,172.592699 1516.52487,178.792321 C1514.87213,184.995886 1512.50427,190.887892 1509.42128,196.464396 C1506.3502,202.048788 1502.5799,207.187532 1498.1183,211.876686 C1493.65273,216.577671 1488.65877,220.651595 1483.12448,224.102402 L1504.40744,273.932055 L1463.57769,273.932055 L1446.8477,235.531475 L1403.88448,235.795708 L1403.88448,273.932055 Z" id="Combined-Shape" fill="#04D2DF"></path>
        </g>
    </g>
</svg>