<?xml version="1.0" encoding="UTF-8"?>
<svg width="512px" height="512px" viewBox="0 0 512 512" version="1.1" xmlns="http://www.w3.org/2000/svg" xmlns:xlink="http://www.w3.org/1999/xlink">
    <title>pac-logo-renewable</title>
    <g id="Logos" stroke="none" stroke-width="1" fill="none" fill-rule="evenodd">
        <g id="pac-logo-renewable">
            <path d="M491.790256,355.518351 C478.653922,386.510348 460.401749,413.674411 437.0377,437.03828 C413.677613,460.402149 386.509377,478.65418 355.521102,491.790412 C324.703224,505.097039 291.527542,511.829605 255.998019,512 C220.468496,511.829605 187.292814,505.097039 156.478898,491.790412 C125.490623,478.65418 98.3223869,460.402149 74.9583375,437.03828 C51.5942881,413.674411 33.3421152,386.510348 20.2097442,355.518351 C6.89905189,324.704673 0.170395883,291.529248 0,256 C0.170395883,220.466789 6.89905189,187.295327 20.2097442,156.477687 C33.3421152,125.489652 51.5942881,98.3255886 74.9583375,74.9577574 C98.3223869,51.5938888 125.490623,33.3458199 156.478898,20.2095878 C187.292814,6.90296116 220.468496,0.170394564 255.998019,0 C291.527542,0.170394564 324.703224,6.90296116 355.521102,20.2095878 C386.509377,33.3458199 413.677613,51.5938888 437.0377,74.9577574 C460.401749,98.3255886 478.653922,125.489652 491.790256,156.477687 C505.100948,187.295327 511.829604,220.466789 512,256 C511.829604,291.529248 505.100948,324.704673 491.790256,355.518351 Z" id="Fill-1" fill="#54AF61"></path>
            <path d="M104.283203,337.99707 L104.283203,352.010742 L111.290039,352.010742 C112.250326,352.010742 113.153646,351.827637 114,351.461426 C114.846354,351.095215 115.586914,350.594727 116.22168,349.959961 C116.856445,349.325195 117.356934,348.580566 117.723145,347.726074 C118.089355,346.871582 118.272461,345.964193 118.272461,345.003906 C118.272461,344.04362 118.089355,343.13623 117.723145,342.281738 C117.356934,341.427246 116.856445,340.682617 116.22168,340.047852 C115.586914,339.413086 114.846354,338.912598 114,338.546387 C113.153646,338.180176 112.250326,337.99707 111.290039,337.99707 L104.283203,337.99707 Z M104.283203,366 L97.2763672,366 L97.2763672,330.990234 L111.290039,330.990234 C112.575846,330.990234 113.812826,331.157064 115.000977,331.490723 C116.189128,331.824382 117.299967,332.296387 118.333496,332.906738 C119.367025,333.51709 120.311035,334.249512 121.165527,335.104004 C122.02002,335.958496 122.752441,336.906576 123.362793,337.948242 C123.973145,338.989909 124.44515,340.104818 124.778809,341.292969 C125.112467,342.48112 125.279297,343.718099 125.279297,345.003906 C125.279297,346.208333 125.128743,347.380208 124.827637,348.519531 C124.52653,349.658854 124.095215,350.741211 123.533691,351.766602 C122.972168,352.791992 122.284505,353.736003 121.470703,354.598633 C120.656901,355.461263 119.745443,356.209961 118.736328,356.844727 L122.618164,366 L115.171875,366 L112.120117,358.944336 L104.283203,358.993164 L104.283203,366 Z M157.868164,366 L133.869141,366 L133.869141,330.990234 L157.868164,330.990234 L157.868164,337.99707 L140.875977,337.99707 L140.875977,345.003906 L152.375,345.003906 L152.375,352.010742 L140.875977,352.010742 L140.875977,358.993164 L157.868164,358.993164 L157.868164,366 Z M194.77832,366 L187.283203,366 L173.782227,342.953125 L173.782227,366 L166.775391,366 L166.775391,330.990234 L174.270508,330.990234 L187.771484,354.061523 L187.771484,330.990234 L194.77832,330.990234 L194.77832,366 Z M229.271484,366 L205.272461,366 L205.272461,330.990234 L229.271484,330.990234 L229.271484,337.99707 L212.279297,337.99707 L212.279297,345.003906 L223.77832,345.003906 L223.77832,352.010742 L212.279297,352.010742 L212.279297,358.993164 L229.271484,358.993164 L229.271484,366 Z M272.919922,355.990234 C272.919922,357.438802 272.647298,358.801921 272.102051,360.07959 C271.556803,361.357259 270.808105,362.472168 269.855957,363.424316 C268.903809,364.376465 267.7889,365.125163 266.51123,365.67041 C265.233561,366.215658 263.870443,366.488281 262.421875,366.488281 C261.119792,366.488281 259.870605,366.260417 258.674316,365.804688 C257.478027,365.348958 256.39974,364.681641 255.439453,363.802734 C254.479167,364.681641 253.39681,365.348958 252.192383,365.804688 C250.987956,366.260417 249.734701,366.488281 248.432617,366.488281 C246.984049,366.488281 245.620931,366.215658 244.343262,365.67041 C243.065592,365.125163 241.950684,364.376465 240.998535,363.424316 C240.046387,362.472168 239.297689,361.357259 238.752441,360.07959 C238.207194,358.801921 237.93457,357.438802 237.93457,355.990234 L237.93457,330.990234 L244.941406,330.990234 L244.941406,355.990234 C244.941406,356.478516 245.030924,356.938314 245.209961,357.369629 C245.388997,357.800944 245.637207,358.175293 245.95459,358.492676 C246.271973,358.810059 246.642253,359.058268 247.06543,359.237305 C247.488607,359.416341 247.944336,359.505859 248.432617,359.505859 C248.920898,359.505859 249.376628,359.416341 249.799805,359.237305 C250.222982,359.058268 250.593262,358.810059 250.910645,358.492676 C251.228027,358.175293 251.476237,357.800944 251.655273,357.369629 C251.83431,356.938314 251.923828,356.478516 251.923828,355.990234 L251.923828,330.990234 L258.930664,330.990234 L258.930664,355.990234 C258.930664,356.478516 259.020182,356.938314 259.199219,357.369629 C259.378255,357.800944 259.626465,358.175293 259.943848,358.492676 C260.26123,358.810059 260.63151,359.058268 261.054688,359.237305 C261.477865,359.416341 261.933594,359.505859 262.421875,359.505859 C262.910156,359.505859 263.365885,359.416341 263.789062,359.237305 C264.21224,359.058268 264.58252,358.810059 264.899902,358.492676 C265.217285,358.175293 265.469564,357.800944 265.656738,357.369629 C265.843913,356.938314 265.9375,356.478516 265.9375,355.990234 L265.9375,330.990234 L272.919922,330.990234 L272.919922,355.990234 Z M303.775391,352.010742 L303.775391,345.003906 C303.775391,344.04362 303.592285,343.13623 303.226074,342.281738 C302.859863,341.427246 302.359375,340.682617 301.724609,340.047852 C301.089844,339.413086 300.345215,338.912598 299.490723,338.546387 C298.63623,338.180176 297.728841,337.99707 296.768555,337.99707 C295.808268,337.99707 294.900879,338.180176 294.046387,338.546387 C293.191895,338.912598 292.447266,339.413086 291.8125,340.047852 C291.177734,340.682617 290.677246,341.427246 290.311035,342.281738 C289.944824,343.13623 289.761719,344.04362 289.761719,345.003906 L289.761719,352.010742 L303.775391,352.010742 Z M310.782227,366 L303.775391,366 L303.775391,358.993164 L289.761719,358.993164 L289.761719,366 L282.779297,366 L282.779297,345.003906 C282.779297,343.067057 283.145508,341.24821 283.87793,339.547363 C284.610352,337.846517 285.607259,336.361328 286.868652,335.091797 C288.130046,333.822266 289.611165,332.821289 291.312012,332.088867 C293.012858,331.356445 294.831706,330.990234 296.768555,330.990234 C298.705404,330.990234 300.524251,331.356445 302.225098,332.088867 C303.925944,332.821289 305.411133,333.822266 306.680664,335.091797 C307.950195,336.361328 308.951172,337.846517 309.683594,339.547363 C310.416016,341.24821 310.782227,343.067057 310.782227,345.003906 L310.782227,366 Z M348.864258,355.501953 C348.864258,356.950521 348.587565,358.30957 348.03418,359.579102 C347.480794,360.848633 346.728027,361.959473 345.775879,362.911621 C344.82373,363.86377 343.712891,364.616536 342.443359,365.169922 C341.173828,365.723307 339.814779,366 338.366211,366 L320.861328,366 L320.861328,330.990234 L338.366211,330.990234 C339.814779,330.990234 341.173828,331.266927 342.443359,331.820312 C343.712891,332.373698 344.82373,333.126465 345.775879,334.078613 C346.728027,335.030762 347.480794,336.141602 348.03418,337.411133 C348.587565,338.680664 348.864258,340.039714 348.864258,341.488281 C348.864258,342.139323 348.77474,342.806641 348.595703,343.490234 C348.416667,344.173828 348.164388,344.833008 347.838867,345.467773 C347.513346,346.102539 347.122721,346.680339 346.666992,347.201172 C346.211263,347.722005 345.706706,348.15332 345.15332,348.495117 C345.722982,348.804362 346.235677,349.22347 346.691406,349.752441 C347.147135,350.281413 347.53776,350.863281 347.863281,351.498047 C348.188802,352.132812 348.437012,352.796061 348.60791,353.487793 C348.778809,354.179525 348.864258,354.850911 348.864258,355.501953 Z M327.868164,358.993164 L338.366211,358.993164 C338.854492,358.993164 339.310221,358.903646 339.733398,358.724609 C340.156576,358.545573 340.526855,358.297363 340.844238,357.97998 C341.161621,357.662598 341.409831,357.292318 341.588867,356.869141 C341.767904,356.445964 341.857422,355.990234 341.857422,355.501953 C341.857422,355.013672 341.767904,354.557943 341.588867,354.134766 C341.409831,353.711589 341.161621,353.341309 340.844238,353.023926 C340.526855,352.706543 340.156576,352.458333 339.733398,352.279297 C339.310221,352.10026 338.854492,352.010742 338.366211,352.010742 L327.868164,352.010742 L327.868164,358.993164 Z M327.868164,345.003906 L338.366211,345.003906 C338.854492,345.003906 339.310221,344.914388 339.733398,344.735352 C340.156576,344.556315 340.526855,344.308105 340.844238,343.990723 C341.161621,343.67334 341.409831,343.298991 341.588867,342.867676 C341.767904,342.436361 341.857422,341.976562 341.857422,341.488281 C341.857422,341 341.767904,340.544271 341.588867,340.121094 C341.409831,339.697917 341.161621,339.327637 340.844238,339.010254 C340.526855,338.692871 340.156576,338.444661 339.733398,338.265625 C339.310221,338.086589 338.854492,337.99707 338.366211,337.99707 L327.868164,337.99707 L327.868164,345.003906 Z M382.673828,366 L358.162109,366 L358.162109,330.990234 L365.168945,330.990234 L365.168945,358.993164 L382.673828,358.993164 L382.673828,366 Z M414.310547,366 L390.311523,366 L390.311523,330.990234 L414.310547,330.990234 L414.310547,337.99707 L397.318359,337.99707 L397.318359,345.003906 L408.817383,345.003906 L408.817383,352.010742 L397.318359,352.010742 L397.318359,358.993164 L414.310547,358.993164 L414.310547,366 Z" id="Combined-Shape" fill="#FFFFFF" fill-rule="nonzero"></path>
            <path d="M430.131575,209 L453,209 L453,189.06264 L432.418417,177 L396,177 L396,196.758389 L430.131575,196.758389 L430.131575,209 Z M453,246 L429.846314,246 L429.846314,258.243913 L396,258.243913 L396,279 L432.161682,279 L453,266.937681 L453,246 Z M332,266.939925 L332,189.237095 L352.584459,177 L389,177 L389,197.044144 L354.871121,197.044144 L354.871121,258.247775 L389,258.247775 L389,279 L352.584459,279 L332,266.939925 Z M247,260.776573 L247,279 L215.812759,279 L196,268.638197 L196,240.057537 L222.703579,229.160961 L211.853734,221.838681 L211.853734,186.648772 L237.009855,177 L247,177 L247,200.758559 L231.838434,200.758559 L231.838434,209.333214 L247,221.838681 L247,245.953755 L241.661048,242.201201 L217.364627,252.384746 L217.364627,260.776573 L247,260.776573 Z M315,240.057537 L300.871328,258.459222 L315,268.816455 L294.940498,279 L288.840089,274.89093 L284.997769,279 L255,279 L255,260.776573 L268.253998,260.776573 L255,251.667145 L255,215.764205 L271.043139,209.333214 L271.043139,200.758559 L255,200.758559 L255,177 L264.94273,177 L291.107103,186.648772 L291.107103,221.838681 L264.242097,232.735257 L284.997769,248.275677 L294.940498,233.983061 L315,240.057537 Z M179,226.887206 L179,226.887206 L179,189.290588 L158.415541,177 L122,177 L122,197.131765 L156.128879,197.131765 L156.128879,218.157059 L122,218.157059 L122,239 L158.415541,239 L179,226.887206 Z M58,177 L58,177 L115,177 L115,197.044144 L80.8711206,197.044144 L80.8711206,217.977928 L115,217.977928 L115,238.730153 L80.8711206,238.730153 L80.8711206,279 L58,279 L58,177 Z" id="P&amp;C" fill="#FFFFFF"></path>
        </g>
    </g>
</svg>